<svg width="50" height="50" viewBox="0 0 50 50" fill="none" xmlns="http://www.w3.org/2000/svg">
<path d="M50 13.3L25.6429 0H24.3571L0 13.3V45H3.57143V20L11.8214 24.5C9.99903 28.1333 9.01447 32.4604 9 36.9C8.96429 37.45 8.96429 38 9 38.55V39.1L10 41.1L24.2143 50H25.6786L39.75 40.95L40.75 38.95V36.75C40.7298 32.3348 39.759 28.0307 37.9643 24.4L50 17.85V13.3ZM37.4286 36.7V37.05L25 45L12.5 37C12.4833 36.9014 12.4833 36.7986 12.5 36.7C12.5194 32.8463 13.4627 29.1135 15.1786 26.1L24.3929 31.1H25.6786L34.8214 26.1C36.5216 29.119 37.4406 32.8556 37.4286 36.7ZM25 26.25L5.42857 15.6L25 5L44.5714 15.7L25 26.25Z" fill="#254478"/>
</svg>
