<svg width="50" height="50" viewBox="0 0 50 50" fill="none" xmlns="http://www.w3.org/2000/svg">
<path fill-rule="evenodd" clip-rule="evenodd" d="M23.6783 50H26.3217L32.7252 43.5964H41.6605L43.522 41.7349V32.7252L50 26.3217V23.6783L43.6337 17.2748V8.19062L41.7721 6.36634H32.7252L26.3217 0H23.6783L17.4609 6.36634H8.26508L6.29188 8.22785V17.2748L0 23.6783V26.3217L6.29188 32.7252V41.7349L8.26508 43.5964H17.4609L23.6783 50ZM18.0566 39.8734H10.0149V31.9434L9.56813 30.6404L3.94639 24.9814L9.45644 19.3596L10.0149 18.0566V10.0894H18.0566L19.3969 9.56813L24.9069 3.94639L30.6404 9.56813L31.9434 10.0894H39.799V18.0566L40.4319 19.3596L46.0908 24.9814L40.3202 30.6404L39.799 31.9434V39.8734H31.9434L30.5287 40.4319L24.9069 46.0536L19.3969 40.3946L18.0566 39.8734ZM20.1787 34.2144H22.822L36.8578 20.1787L34.2144 17.5354L21.519 30.2681L16.3812 25.1303L13.7379 27.7736L20.1787 34.2144Z" fill="#254478"/>
</svg>
