<svg width="50" height="50" viewBox="0 0 50 50" fill="none" xmlns="http://www.w3.org/2000/svg">
<path d="M48.2143 9.09091H35.7143V2.27273L33.9286 0H16.0714L14.2857 2.27273V9.09091H1.78571L0 11.3636V47.7273L1.78571 50H48.2143L50 47.7273V11.3636L48.2143 9.09091ZM17.8571 4.54545H32.1429V9.09091H17.8571V4.54545ZM46.4286 13.6364V17.0909L32.1429 27.2727V25L30.3929 22.7273H19.6786L17.8571 25V27.2727L3.57143 16.8636V13.6364H46.4286ZM28.5714 27.2727V31.8182H21.4286V27.2727H28.5714ZM3.57143 45.4545V22.0909L17.8571 32.5V34.0909L19.6429 36.3636H30.3571L32.1429 34.0909V32.6818L46.4286 22.3182V45.4545H3.57143Z" fill="#254478"/>
</svg>
