<svg width="23" height="23" viewBox="0 0 23 23" fill="none" xmlns="http://www.w3.org/2000/svg">
<path d="M11.5 0C5.15477 0 0 5.15477 0 11.5C0 17.8452 5.15477 23 11.5 23C17.8452 23 23 17.8452 23 11.5C23 5.15477 17.8452 0 11.5 0ZM11.5 1C17.3048 1 22 5.69523 22 11.5C22 17.3048 17.3048 22 11.5 22C5.69523 22 1 17.3048 1 11.5C1 5.69523 5.69523 1 11.5 1ZM15.4951 6.99317C15.3632 6.99629 15.2379 7.05139 15.1465 7.14649L11.5 10.793L7.85351 7.14649C7.75937 7.04972 7.63011 6.99512 7.49511 6.99511C7.29165 6.99517 7.10851 7.1185 7.03195 7.307C6.95539 7.49551 7.00067 7.7116 7.14648 7.85351L10.793 11.5L7.14648 15.1465C7.01586 15.2719 6.96324 15.4581 7.00892 15.6333C7.0546 15.8086 7.19144 15.9454 7.36666 15.9911C7.54188 16.0368 7.7281 15.9841 7.85351 15.8535L11.5 12.207L15.1465 15.8535C15.2719 15.9841 15.4581 16.0368 15.6333 15.9911C15.8086 15.9454 15.9454 15.8086 15.9911 15.6333C16.0367 15.4581 15.9841 15.2719 15.8535 15.1465L12.207 11.5L15.8535 7.85351C16.0021 7.7106 16.0478 7.49112 15.9685 7.30079C15.8892 7.11046 15.7012 6.9883 15.4951 6.99317Z" fill="white"/>
</svg>
