<svg width="128" height="128" viewBox="0 0 128 128" fill="none" xmlns="http://www.w3.org/2000/svg">
<g clip-path="url(#clip0_47_88)">
<path d="M126.093 62.0431C125.532 62.0451 125.063 61.6145 125.016 61.0548L124.883 59.1907C124.787 59.1611 124.695 59.1188 124.609 59.0636C124.27 58.839 124.087 58.4419 124.136 58.0369L124.295 56.6753C123.939 56.8063 123.539 56.7403 123.245 56.5009C122.949 56.2615 122.802 55.8841 122.858 55.5087L123.31 52.4543L121.618 53.4288C121.205 53.6751 120.68 53.617 120.33 53.2879C119.981 52.9588 119.891 52.4376 120.112 52.011L121.254 49.7547L118.456 51.3666C118.003 51.6267 117.429 51.5233 117.095 51.1213C116.76 50.7202 116.763 50.136 117.101 49.7379L118.267 48.3773L115.126 50.1872C114.67 50.4493 114.091 50.3429 113.758 49.936C113.425 49.529 113.435 48.9408 113.781 48.5457L116.672 45.2648L107.985 50.2779C107.473 50.5449 106.843 50.3626 106.554 49.8631C106.265 49.3635 106.422 48.7251 106.909 48.4157L121.282 40.1186C121.737 39.8595 122.314 39.9669 122.646 40.3719C122.978 40.7768 122.97 41.363 122.627 41.7591L119.748 45.0519L122.658 43.373C123.111 43.1139 123.685 43.2173 124.019 43.6184C124.353 44.0203 124.351 44.6036 124.013 45.0027L122.849 46.3584L123.327 46.0855C123.739 45.8392 124.265 45.8973 124.615 46.2264C124.965 46.5555 125.054 47.0767 124.834 47.5033L123.693 49.7507L124.171 49.4768C124.526 49.2739 124.966 49.2896 125.306 49.5182C125.645 49.7468 125.826 50.1478 125.772 50.5537L125.314 53.6465C125.661 53.5431 126.036 53.6219 126.313 53.8544C126.591 54.0879 126.732 54.4446 126.689 54.8042L126.448 56.8625C126.737 57.0457 126.922 57.3551 126.945 57.697L127.16 60.6952C127.286 61.1603 127.081 61.65 126.663 61.8874C126.49 61.9889 126.293 62.0421 126.093 62.0431Z" fill="#F76C82"/>
<path d="M96.1535 63.6699C95.8086 63.6699 95.4854 63.5044 95.2825 63.2255C95.0805 62.9467 95.0243 62.5881 95.1307 62.26L96.0214 59.5288L95.7722 59.6756C95.2736 59.9662 94.6332 59.8125 94.3228 59.3258C94.0115 58.8391 94.1405 58.1937 94.6145 57.8626L101.22 53.2161L94.5327 57.0734C94.0391 57.3572 93.4104 57.2094 93.0961 56.7335C92.7828 56.2586 92.8932 55.6221 93.3484 55.2802L104.874 46.6561L92.0015 54.088C91.502 54.3698 90.8694 54.2102 90.563 53.7264C90.2556 53.2417 90.3837 52.6013 90.8517 52.2712L96.2086 48.5734L89.6142 52.3746C89.1156 52.6604 88.4791 52.5037 88.1707 52.019C87.8613 51.5332 87.9894 50.8908 88.4604 50.5598L95.9574 45.3338L86.3903 50.8553C85.8888 51.1322 85.2592 50.9686 84.9558 50.4839C84.6523 49.9981 84.7823 49.3597 85.2513 49.0316L89.8014 45.9605L82.7655 50.0218C82.2659 50.3036 81.6334 50.145 81.327 49.6602C81.0205 49.1754 81.1477 48.536 81.6157 48.2049L90.9788 41.7908L75.9119 50.4937C75.4015 50.7608 74.7699 50.5775 74.4812 50.078C74.1926 49.5794 74.3492 48.9409 74.8359 48.6316L113.747 26.1524C114.246 25.8706 114.879 26.0292 115.185 26.514C115.492 26.9988 115.364 27.6382 114.896 27.9683L105.542 34.3933L115.357 28.726C115.858 28.4402 116.496 28.6008 116.802 29.0905C117.108 29.5802 116.973 30.2236 116.498 30.5497L111.949 33.612L116.685 30.8768C117.184 30.5802 117.83 30.733 118.142 31.2236C118.454 31.7143 118.32 32.3636 117.84 32.6907L110.345 37.9166L118.24 33.3686C118.74 33.0868 119.373 33.2464 119.679 33.7312C119.986 34.2149 119.858 34.8554 119.39 35.1854L114.035 38.8832L119.446 35.7648C119.939 35.48 120.569 35.6288 120.882 36.1037C121.195 36.5786 121.085 37.2161 120.63 37.557L109.102 46.1861L120.957 39.3443C121.45 39.0931 122.053 39.2556 122.351 39.7207C122.65 40.1857 122.548 40.8015 122.115 41.1454L98.9664 57.435C98.9664 57.4626 98.9517 57.4951 98.9408 57.5277L97.4471 62.1013C97.6058 62.5841 97.4048 63.1132 96.9643 63.3684L96.6934 63.526C96.5289 63.6206 96.3426 63.6709 96.1535 63.6699Z" fill="#F76C82"/>
<path d="M63.9861 63.9241C63.7614 63.9349 63.5407 63.8718 63.3555 63.7457C62.9919 63.5221 62.7988 63.1033 62.8648 62.6826L63.2303 61.1751C62.8865 61.0825 62.6106 60.8254 62.4943 60.4874C62.3781 60.1504 62.4362 59.778 62.649 59.4923L64.5329 56.9828L62.72 58.0262C62.2155 58.3001 61.5849 58.1296 61.2874 57.639C60.9898 57.1473 61.1297 56.5098 61.6056 56.1886L69.0849 51.4356L61.2677 55.9561C60.7622 56.2389 60.1238 56.0704 59.8223 55.5758C59.5217 55.0802 59.6666 54.4368 60.1504 54.1176L71.0604 47.125L59.3621 53.8791C58.8587 54.1659 58.2182 54.0013 57.9148 53.5077C57.6103 53.0141 57.7522 52.3687 58.235 52.0475L75.8843 40.4912L56.3511 51.7677C55.8476 52.0337 55.223 51.8613 54.9284 51.3736C54.6328 50.8859 54.7688 50.2523 55.2387 49.9291L62.38 45.3969L53.3835 50.5903C52.878 50.8602 52.2504 50.6868 51.9548 50.1971C51.6592 49.7065 51.7981 49.071 52.273 48.7498L57.2724 45.5969L49.7281 49.9508C49.2226 50.2287 48.5881 50.0582 48.2886 49.5646C47.99 49.071 48.1349 48.4296 48.6157 48.1103L57.4793 42.5011L43.5986 50.5124C43.0873 50.7804 42.4567 50.5972 42.168 50.0976C41.8793 49.5981 42.036 48.9606 42.5227 48.6512L102.165 14.2128C102.671 13.9231 103.316 14.0906 103.619 14.5891C103.921 15.0887 103.771 15.738 103.28 16.0533L94.4273 21.6496L104.209 16.004C104.715 15.734 105.342 15.9065 105.638 16.3971C105.934 16.8868 105.794 17.5233 105.321 17.8435L100.302 21.0082L106.102 17.6524C106.607 17.3745 107.242 17.545 107.541 18.0386C107.84 18.5322 107.695 19.1736 107.214 19.4929L100.086 24.0123L107.996 19.4475C108.499 19.1608 109.139 19.3254 109.444 19.819C109.747 20.3126 109.606 20.958 109.124 21.2792L91.4734 32.8326L110.2 22.0241C110.703 21.7541 111.33 21.9255 111.627 22.4132C111.924 22.901 111.788 23.5365 111.317 23.8596L100.408 30.8531L112.031 24.1483C112.537 23.8655 113.175 24.034 113.476 24.5286C113.777 25.0232 113.632 25.6676 113.149 25.9859L69.5972 53.6446C69.5657 53.7914 69.5016 53.9304 69.412 54.0516L65.7448 58.9523C65.8433 59.173 65.8679 59.4203 65.8128 59.6558L65.0817 62.6954C65.193 63.1092 65.0098 63.5467 64.6363 63.7585C64.4373 63.8689 64.2127 63.925 63.9861 63.9241Z" fill="#F76C82"/>
<path d="M61.442 39.4971L30.3358 57.4538C29.8313 57.7316 29.1978 57.5631 28.8982 57.0715C28.5987 56.5798 28.7386 55.9394 29.2165 55.6182L60.9681 35.1559L27.9209 54.2319C27.4184 54.5019 26.7927 54.3324 26.4942 53.8467C26.1966 53.3599 26.3286 52.7264 26.7966 52.4003L59.8193 30.93L24.1364 51.5332C23.626 51.8377 22.9659 51.6702 22.6614 51.1598C22.357 50.6484 22.5245 49.9883 23.0348 49.6839L25.4281 48.2119L21.554 50.4484C21.0485 50.7421 20.4012 50.5785 20.0958 50.0809C19.7903 49.5824 19.9371 48.9321 20.4278 48.6138L53.4238 27.1141L13.2885 50.2849C12.7781 50.5519 12.1465 50.3686 11.8578 49.8691C11.5691 49.3705 11.7258 48.7321 12.2125 48.4227L86.9194 5.28912C87.4258 4.97777 88.0889 5.13541 88.4003 5.64185C88.7116 6.14828 88.554 6.81138 88.0475 7.12272L55.0387 28.6314L91.6093 7.51684C91.9394 7.31978 92.3503 7.31387 92.6853 7.50206C93.0212 7.68926 93.2311 8.04199 93.237 8.42625C93.2419 8.81051 93.0419 9.16915 92.7119 9.36522L90.3226 10.8333L93.9986 8.71395C94.5031 8.43216 95.1396 8.59867 95.4411 9.09033C95.7426 9.58297 95.6017 10.2264 95.1219 10.5476L62.1002 32.0148L98.0274 11.2727C98.5319 10.9949 99.1654 11.1643 99.465 11.655C99.7655 12.1467 99.6246 12.7871 99.1467 13.1083L67.3971 33.5716L101.691 13.7694C102.195 13.4995 102.822 13.6709 103.118 14.1586C103.416 14.6473 103.279 15.2818 102.808 15.605L61.442 39.4971Z" fill="#F76C82"/>
<path d="M1.96465 60.3012C1.56068 60.3022 1.19022 60.0766 1.00597 59.7169C0.820737 59.3583 0.853251 58.9248 1.08873 58.5967L2.83859 56.163L2.80411 56.1818C2.29472 56.4724 1.64542 56.301 1.34589 55.7955C1.04637 55.2911 1.20697 54.6388 1.7065 54.3314L7.13047 51.0248L3.41991 53.1648C2.91544 53.4377 2.28486 53.2673 1.98731 52.7766C1.68975 52.286 1.82966 51.6475 2.30555 51.3263L37.5569 28.8422L4.55692 47.8936C4.0495 48.1724 3.41202 48.001 3.11447 47.5044C2.81691 47.0078 2.96471 46.3644 3.45045 46.0481L17.8129 37.1274L5.90872 44.0017C5.39835 44.3072 4.73722 44.1416 4.43179 43.6313C4.12635 43.1219 4.29188 42.4607 4.80225 42.1553L14.0915 36.3845L7.2152 40.3532C6.71173 40.6301 6.07918 40.4636 5.77867 39.9739C5.47816 39.4852 5.61412 38.8458 6.08903 38.5216L31.2265 22.097L10.3208 34.1676C9.8193 34.4642 9.17295 34.3085 8.86259 33.8169C8.55124 33.3242 8.6882 32.674 9.17098 32.3488L31.3408 17.1469L15.7251 26.1603C15.2324 26.4499 14.5999 26.3031 14.2846 25.8272C13.9683 25.3514 14.0796 24.7119 14.5368 24.37L26.1602 15.5449C25.6803 15.5271 25.2705 15.1941 25.1552 14.7281C25.0399 14.262 25.2468 13.7763 25.6626 13.5369L38.8181 5.9374C39.3097 5.65069 39.9403 5.79749 40.2556 6.27141C40.5709 6.74435 40.4625 7.38182 40.0083 7.72569L29.4234 15.7666L54.2791 1.41497C54.7796 1.11741 55.4259 1.27309 55.7373 1.76573C56.0486 2.25837 55.9117 2.90865 55.4279 3.23379L33.2581 18.4396L63.9663 0.708522C64.4728 0.397173 65.1359 0.555803 65.4472 1.06224C65.7586 1.56867 65.6009 2.23078 65.0945 2.54311L39.9413 18.9756L70.7855 1.16766C71.2948 0.862225 71.956 1.02775 72.2614 1.53714C72.5668 2.04752 72.4013 2.70864 71.8919 3.01408L62.5761 8.79964L74.6872 1.80908C75.1946 1.52926 75.8321 1.70168 76.1296 2.19827C76.4272 2.69386 76.2794 3.33725 75.7936 3.65352L61.442 12.5664L78.6608 2.62194C79.1662 2.34015 79.8047 2.50764 80.1052 3.00324C80.4067 3.49785 80.2619 4.14222 79.7781 4.46047L44.5455 26.9396L83.8719 4.23188C84.3803 3.95108 85.0198 4.12449 85.3173 4.62402C85.6139 5.12356 85.4612 5.76793 84.9715 6.08125L7.54823 53.289C7.53542 53.3136 7.52163 53.3363 7.50488 53.3579L3.55982 58.8489C3.58937 59.2598 3.38148 59.6519 3.02382 59.8578L2.5036 60.1574C2.34004 60.2519 2.15382 60.3012 1.96465 60.3012Z" fill="#F76C82"/>
<path d="M126.048 61.6727C125.879 61.6737 125.715 61.6333 125.565 61.5564C125.228 61.3939 124.999 61.0677 124.96 60.6953L124.812 58.4676C124.63 58.4587 124.454 58.4035 124.3 58.306C123.962 58.0961 123.768 57.7178 123.794 57.3207L123.995 54.4279L123.146 54.9186C122.756 55.1423 122.268 55.0989 121.922 54.8112C121.577 54.5235 121.447 54.0516 121.596 53.6269L122.361 51.5026L120.49 52.5786C120.076 52.817 119.556 52.7539 119.211 52.4249C118.865 52.0958 118.778 51.5785 118.996 51.1538L120.718 47.7881L116.168 50.4011C115.728 50.6514 115.172 50.5607 114.834 50.1833C114.496 49.806 114.468 49.2444 114.764 48.8335L117.915 44.5485L107.994 50.276C107.482 50.543 106.852 50.3597 106.563 49.8612C106.274 49.3616 106.431 48.7232 106.918 48.4138L121.291 40.1167C121.731 39.8635 122.288 39.9532 122.627 40.3315C122.966 40.7099 122.995 41.2735 122.696 41.6833L119.545 45.9663L122.828 44.0726C123.241 43.8352 123.762 43.8973 124.107 44.2273C124.452 44.5564 124.539 45.0737 124.322 45.4974L122.599 48.8621L123.841 48.1448C124.232 47.9202 124.721 47.9625 125.067 48.2502C125.413 48.5379 125.543 49.0118 125.394 49.4365L124.627 51.5647L124.678 51.5332C125.024 51.3391 125.447 51.347 125.785 51.5549C126.123 51.7647 126.317 52.1431 126.29 52.5401L126.065 55.8054C126.146 55.826 126.225 55.8566 126.299 55.896C126.628 56.0704 126.843 56.4024 126.868 56.7739L127.102 60.2775C127.255 60.7377 127.07 61.2421 126.655 61.4924C126.473 61.6077 126.263 61.6707 126.048 61.6727Z" fill="#EB5463"/>
<path d="M96.2412 62.3872C95.8835 62.3882 95.5475 62.2098 95.3475 61.9132C95.1475 61.6157 95.1081 61.2383 95.2431 60.9063L95.6736 59.8432C95.5386 59.7801 95.4184 59.6885 95.3219 59.5742C94.9839 59.1801 94.9761 58.6007 95.3032 58.1968L95.8559 57.5041C95.4263 57.4342 95.0805 57.111 94.981 56.6873C94.8815 56.2627 95.048 55.8203 95.4017 55.5661L103.108 49.9943L96.3515 53.8941C95.851 54.1847 95.2106 54.029 94.9012 53.5403C94.5908 53.0516 94.7228 52.4053 95.1997 52.0772L97.8403 50.2485L96.0195 51.2988C95.5298 51.5777 94.9071 51.4318 94.5928 50.9638C94.2785 50.4958 94.379 49.8643 94.8233 49.5165L104.681 41.8943L95.4963 47.1981C95.0086 47.4779 94.3869 47.3341 94.0716 46.869C93.7553 46.403 93.8509 45.7724 94.2913 45.4226L103.489 38.1838L94.8076 43.1949C94.3159 43.4747 93.6922 43.3259 93.3789 42.855C93.0666 42.384 93.171 41.7505 93.6193 41.4056L100.09 36.4861L94.0972 39.9445C93.6144 40.2253 92.9976 40.0903 92.6764 39.6331C92.3552 39.1759 92.437 38.5493 92.8646 38.1907L101.616 30.8139L93.1287 35.6999C92.6478 35.9698 92.0399 35.8319 91.7217 35.3806C91.4044 34.9284 91.4803 34.3096 91.898 33.9481L99.0482 27.9211L91.9453 32.011C91.4675 32.2839 90.8605 32.1509 90.5393 31.7046C90.2172 31.2582 90.2842 30.6405 90.695 30.2739L97.3496 24.3918L90.7265 28.2167C90.2487 28.4896 89.6408 28.3566 89.3196 27.9093C88.9974 27.462 89.0663 26.8432 89.4782 26.4777L94.5238 22.035L89.3383 25.0263C88.8594 25.2825 88.2653 25.1416 87.952 24.6982C87.6387 24.2539 87.7057 23.646 88.1077 23.2804L91.3818 20.4832L88.153 22.3444C87.6791 22.5986 87.0918 22.4646 86.7746 22.0311C86.4583 21.5966 86.5095 20.9965 86.8958 20.6231L89.7413 18.0742L86.8376 19.7492C86.3696 20.0122 85.7795 19.8901 85.4543 19.4625C85.1282 19.0358 85.1676 18.4338 85.5459 18.0525L88.5382 15.0592L85.1863 16.9963C84.7282 17.2604 84.1459 17.152 83.8128 16.7401C83.4798 16.3283 83.4956 15.7361 83.8503 15.343L86.347 12.5773L83.465 14.2405C83.0098 14.4996 82.4344 14.3932 82.1014 13.9892C81.7694 13.5853 81.7753 13 82.1172 12.6029L83.6069 10.8984L81.6285 12.0394C81.1713 12.3034 80.589 12.196 80.256 11.7861C79.922 11.3763 79.9358 10.7841 80.2875 10.39L80.6668 9.95944L80.1505 10.257C79.722 10.4984 79.184 10.4196 78.8441 10.0639C78.5041 9.70819 78.448 9.16727 78.7081 8.7505L79.3692 7.72581L78.2046 8.39679C77.8273 8.6165 77.3563 8.58596 77.0095 8.32092C76.6636 8.05588 76.5119 7.60856 76.6242 7.18785L77.0272 5.68135L75.7739 6.40455C75.2902 6.68338 74.6734 6.54544 74.3541 6.08729L72.692 3.70685L71.8446 4.19555C71.5835 4.34729 71.2712 4.38276 70.9835 4.29309L66.2827 2.84178C65.9349 2.82404 65.6187 2.63388 65.4384 2.33633C65.2856 2.10282 65.2344 1.8161 65.2975 1.54416C65.3615 1.27223 65.5339 1.03773 65.7743 0.895849L65.8906 0.829836C66.1517 0.680073 66.464 0.644603 66.7517 0.732293L71.1766 2.09691L72.4683 1.34809C72.9521 1.06926 73.5689 1.20621 73.8891 1.66437L75.5483 4.0448L78.1958 2.51664C78.5731 2.29987 79.0431 2.33042 79.3889 2.59546C79.7338 2.85951 79.8855 3.30584 79.7732 3.72656L79.3732 5.23305L82.1438 3.63394C82.5714 3.39255 83.1093 3.47137 83.4493 3.82706C83.7902 4.18274 83.8453 4.72366 83.5852 5.14044L82.9251 6.16316L85.3784 4.74928C85.8356 4.48424 86.4179 4.59163 86.7509 5.00151C87.0849 5.41237 87.0712 6.00354 86.7194 6.39765L86.3401 6.82822L88.151 5.78382C88.6062 5.52568 89.1816 5.6311 89.5137 6.03605C89.8467 6.44002 89.8398 7.02528 89.4979 7.42234L88.0042 9.12885L91.1748 7.30214C91.633 7.04005 92.2123 7.14942 92.5444 7.5593C92.8764 7.96917 92.8626 8.55936 92.5109 8.95248L90.0142 11.7201L94.6489 9.04313C95.1169 8.78006 95.7071 8.90223 96.0323 9.32886C96.3574 9.75647 96.318 10.3575 95.9397 10.7388L92.9503 13.7134L97.6363 11.0127C98.1132 10.7368 98.7211 10.8669 99.0443 11.3132C99.3684 11.7586 99.3024 12.3763 98.8935 12.7448L96.048 15.2908L100.322 12.8227C100.804 12.5448 101.418 12.6788 101.739 13.133C102.06 13.5872 101.982 14.2109 101.56 14.5725L98.2866 17.3707L102.806 14.7578C103.284 14.4888 103.887 14.6228 104.207 15.0681C104.527 15.5125 104.461 16.1273 104.054 16.4948L99.0157 20.9325L105.544 17.1638C106.022 16.8909 106.629 17.0239 106.95 17.4702C107.271 17.9166 107.204 18.5343 106.794 18.9009L100.148 24.7879L108.465 19.9856C108.947 19.7098 109.56 19.8467 109.879 20.3019C110.199 20.7571 110.119 21.3798 109.696 21.7394L102.541 27.7664L110.972 22.9021C111.454 22.6272 112.066 22.7641 112.385 23.2174C112.704 23.6716 112.626 24.2933 112.206 24.6539L103.469 32.0386L113.721 26.1308C114.213 25.8441 114.842 25.9909 115.158 26.4648C115.473 26.9388 115.365 27.5762 114.911 27.9191L108.448 32.8396L115.415 28.8187C115.902 28.5448 116.519 28.6896 116.833 29.1537C117.147 29.6168 117.053 30.2434 116.618 30.5951L107.427 37.8291L117.423 32.0583C117.912 31.7785 118.535 31.9243 118.849 32.3933C119.165 32.8613 119.064 33.4929 118.62 33.8407L108.757 41.4707L119.289 35.3905C119.788 35.1038 120.424 35.2604 120.733 35.7462C121.042 36.2319 120.914 36.8743 120.443 37.2044L117.81 39.0301L120.239 37.631C120.733 37.3551 121.356 37.5108 121.664 37.9857C121.973 38.4606 121.86 39.0932 121.407 39.4321L100.998 54.1867C101.002 54.4389 100.917 54.6842 100.76 54.8803L98.5398 57.6224C98.658 57.8874 98.663 58.1899 98.5556 58.4589L97.6274 60.7536C97.792 61.2413 97.589 61.7763 97.1437 62.0325L96.7791 62.2473C96.6156 62.3409 96.4303 62.3891 96.2412 62.3872Z" fill="#EB5463"/>
<path d="M63.8786 63.5301C63.6924 63.532 63.5101 63.4847 63.3486 63.3921C63.0047 63.2098 62.787 62.8542 62.7781 62.465L62.8254 60.4136C62.7623 60.385 62.7022 60.3515 62.6451 60.3121C62.3032 60.0757 62.1278 59.6638 62.1948 59.2539L62.5071 57.3504L62.447 57.3829C62.0362 57.6243 61.515 57.5662 61.1672 57.24C60.8193 56.9149 60.7267 56.3996 60.9405 55.973L61.3711 55.1128L60.8499 55.4113C60.4302 55.6537 59.9001 55.5857 59.5552 55.2448C59.2104 54.9039 59.1355 54.3748 59.373 53.9521L61.046 50.9993L57.9138 52.8053C57.4595 53.0644 56.8851 52.959 56.5511 52.556C56.2181 52.153 56.223 51.5688 56.562 51.1717L58.9296 48.4316L54.4682 51.014C53.9815 51.3254 53.3352 51.1963 53.0051 50.7224C52.675 50.2485 52.7785 49.5982 53.2386 49.2494L54.2357 48.4011L51.2592 50.1234C50.7803 50.3953 50.1744 50.2633 49.8522 49.8169C49.531 49.3706 49.598 48.7528 50.0079 48.3863L55.1914 43.8057L43.6006 50.4958C43.0892 50.7628 42.4587 50.5795 42.17 50.081C41.8813 49.5814 42.0379 48.943 42.5247 48.6336L63.4028 36.5807C63.8816 36.3028 64.4925 36.4339 64.8156 36.8832C65.1388 37.3324 65.0689 37.9542 64.6531 38.3197L59.4675 42.9042L63.3978 40.6292C63.8806 40.3494 64.4964 40.4844 64.8176 40.9405C65.1378 41.3957 65.059 42.0204 64.6334 42.381L63.5702 43.2855C64.0333 43.1141 64.5526 43.2796 64.8314 43.6865C65.1102 44.0934 65.0767 44.6373 64.7496 45.0068L62.382 47.7488L63.4028 47.1596C63.8225 46.9172 64.3526 46.9862 64.6974 47.3271C65.0413 47.669 65.1152 48.1981 64.8767 48.6208L63.2067 51.5717L63.4028 51.4594C63.8136 51.218 64.3358 51.2761 64.6836 51.6023C65.0324 51.9284 65.124 52.4457 64.9092 52.8713L64.2245 54.2467C64.7605 54.3906 65.0994 54.9167 65.0078 55.4636L64.5565 58.1494C64.8501 58.3563 65.0216 58.6963 65.0127 59.0559L64.9398 62.1782C65.0797 62.6315 64.8915 63.1212 64.4826 63.3626C64.2994 63.47 64.0905 63.5281 63.8786 63.5301Z" fill="#EB5463"/>
<path d="M31.9309 61.6166C31.662 61.6166 31.4028 61.5161 31.2048 61.3348C30.859 61.0185 30.7565 60.514 30.9535 60.0884L31.5004 58.8982C31.3526 58.8144 31.2275 58.6952 31.1358 58.5514C30.8255 58.0725 30.9437 57.4331 31.4058 57.0971L46.6441 46.0294L32.8453 53.9935C32.3448 54.2743 31.7112 54.1137 31.4058 53.6269C31.1013 53.1412 31.2314 52.5008 31.7024 52.1717L39.356 46.9566L33.2867 50.4593C32.7911 50.7361 32.1654 50.5814 31.857 50.1046C31.5487 49.6277 31.6639 48.9932 32.1201 48.6552L45.9318 38.7088L33.8995 45.6659C33.4049 45.9516 32.7734 45.8008 32.461 45.322C32.1477 44.8432 32.264 44.2047 32.7251 43.8658L47.5762 32.9469L35.0513 40.1788C34.5528 40.4537 33.9261 40.2922 33.6227 39.8113C33.3182 39.3295 33.4414 38.695 33.9045 38.363L40.9788 33.4917L35.8691 36.4407C35.3706 36.7185 34.7419 36.5599 34.4355 36.0771C34.1301 35.5953 34.2532 34.9588 34.7183 34.6258L42.1976 29.4285L37.1648 32.3212C36.6701 32.602 36.0415 32.4493 35.7302 31.9715C35.4198 31.4946 35.5361 30.8571 35.9942 30.5192L46.8225 22.6389L38.9107 27.2066C38.4082 27.5042 37.7608 27.3475 37.4505 26.8529C37.1401 26.3573 37.281 25.7061 37.7677 25.3839L39.9846 23.8774C39.5038 23.9109 39.0594 23.6202 38.8969 23.167C38.7343 22.7128 38.8929 22.2064 39.2851 21.9265L45.2391 17.6849L42.774 19.1076C42.2754 19.3855 41.6468 19.2269 41.3404 18.7441C41.0349 18.2623 41.1581 17.6258 41.6231 17.2928L44.4657 15.3173C44.04 15.2621 43.6873 14.9596 43.5691 14.5478C43.4499 14.1349 43.5878 13.6916 43.9188 13.4186L50.7123 7.84393C50.5399 7.74934 50.398 7.60943 50.3015 7.43898C50.0049 6.92565 50.1803 6.26945 50.6926 5.97091L58.5335 1.44059C59.0183 1.16471 59.6341 1.30462 59.9513 1.76376C60.2686 2.22192 60.1829 2.84659 59.7543 3.20326L55.4318 6.75027L63.3959 2.15295C63.8944 1.87412 64.524 2.03373 64.8294 2.51553C65.1359 2.99832 65.0117 3.63481 64.5476 3.96784L63.6156 4.61319C64.12 4.45752 64.6619 4.69005 64.8974 5.16298C65.1319 5.63493 64.9891 6.20836 64.5605 6.51577L58.5985 10.782L63.3978 8.01142C63.8993 7.72569 64.5368 7.88629 64.8432 8.37598C65.1497 8.86566 65.0157 9.50905 64.5388 9.83518L63.5062 10.5367C64.0087 10.3199 64.593 10.515 64.8649 10.9899C65.1368 11.4648 65.0097 12.0678 64.5693 12.392L53.7381 20.2673L63.3978 14.6926C63.8964 14.4148 64.526 14.5734 64.8314 15.0552C65.1378 15.538 65.0137 16.1745 64.5496 16.5075L57.0743 21.7029L63.3978 18.0445C63.8983 17.7578 64.5348 17.9164 64.8422 18.4042C65.1497 18.8919 65.0186 19.5343 64.5457 19.8624L57.4773 24.7267L63.3978 21.3226C63.8934 21.0358 64.525 21.1866 64.8373 21.6654C65.1497 22.1443 65.0344 22.7837 64.5733 23.1217L49.7093 34.0425L63.3978 26.1416C63.8954 25.8529 64.5309 26.0056 64.8422 26.4884C65.1536 26.9712 65.0314 27.6126 64.5644 27.9476L50.7527 37.891L63.3978 30.599C63.8983 30.3172 64.5319 30.4788 64.8373 30.9645C65.1428 31.4512 65.0127 32.0917 64.5408 32.4198L56.8979 37.6201L63.3978 33.8681C63.8924 33.5952 64.5132 33.7499 64.8206 34.2228C65.129 34.6967 65.0186 35.3263 64.5693 35.6672L34.5134 57.504L34.4828 57.5749L33.2325 60.2845C33.2837 60.7111 33.0758 61.1279 32.7034 61.3436L32.464 61.4836C32.3014 61.5732 32.1172 61.6195 31.9309 61.6166Z" fill="#EB5463"/>
<path d="M54.283 127.394C53.8298 127.394 53.4249 127.109 53.2702 126.682C53.1165 126.256 53.2475 125.778 53.5963 125.488L60.0538 120.118L50.5656 125.596C50.0749 125.879 49.4473 125.734 49.132 125.262C48.8177 124.79 48.9231 124.154 49.3734 123.809L54.7225 119.72L49.535 122.714C49.0798 122.976 48.5024 122.871 48.1684 122.467C47.8344 122.062 47.8403 121.475 48.1832 121.078L51.3725 117.395L49.533 118.456C49.1024 118.707 48.5566 118.628 48.2137 118.267C47.8698 117.906 47.8196 117.355 48.0925 116.937L48.7625 115.917C48.5497 115.826 48.3733 115.668 48.258 115.467C47.9605 114.953 48.1359 114.294 48.6502 113.997L51.0612 112.607C51.4917 112.357 52.0376 112.436 52.3805 112.798C52.7233 113.159 52.7726 113.709 52.5007 114.126L52.3588 114.342L55.8348 112.338C56.2891 112.079 56.8635 112.183 57.1975 112.586C57.5305 112.989 57.5266 113.573 57.1866 113.971L53.9993 117.651L67.9764 109.583C68.4661 109.312 69.0819 109.462 69.3923 109.927C69.7027 110.393 69.6051 111.018 69.1667 111.367L63.8176 115.456L69.9155 111.937C70.3993 111.664 71.0111 111.803 71.3284 112.259C71.6456 112.714 71.5648 113.337 71.1402 113.695L64.6836 119.077L75.8971 112.605C76.3789 112.325 76.9947 112.46 77.3159 112.915C77.6371 113.371 77.5573 113.996 77.1327 114.357L71.1638 119.414L78.4648 115.187C78.9387 114.923 79.5358 115.053 79.857 115.491C80.1772 115.928 80.123 116.536 79.7279 116.909L75.8951 120.407L78.4667 118.921C78.917 118.666 79.4845 118.766 79.8195 119.161C80.1545 119.555 80.1614 120.131 79.8363 120.533L78.2559 122.471C78.7741 122.299 79.3387 122.543 79.5693 123.038C79.8008 123.532 79.6244 124.121 79.1604 124.408L74.2675 127.24C73.8182 127.499 73.2477 127.4 72.9117 127.005C72.5757 126.609 72.5698 126.031 72.8969 125.628L74.4468 123.732L68.3637 127.24C67.8897 127.505 67.2936 127.375 66.9724 126.938C66.6512 126.499 66.7064 125.891 67.1005 125.519L70.9362 122.021L61.8963 127.243C61.4135 127.522 60.7977 127.387 60.4765 126.932C60.1563 126.476 60.2351 125.851 60.6607 125.49L66.6315 120.431L54.821 127.24C54.6584 127.339 54.4732 127.392 54.283 127.394Z" fill="#FDCD56"/>
<path d="M59.9435 109.552C59.4567 109.552 59.0301 109.225 58.904 108.754C58.7779 108.284 58.9838 107.788 59.4055 107.544L61.8352 106.143C62.1692 105.93 62.5919 105.919 62.9377 106.112C63.2826 106.304 63.4944 106.67 63.4895 107.065C63.4836 107.461 63.2619 107.821 62.9121 108.004L60.4814 109.406C60.3188 109.501 60.1326 109.551 59.9435 109.552Z" fill="#FDCD56"/>
<path d="M64.1299 0.370507C28.8441 0.444403 0.82862 29.2165 0 64.0708C0.00689697 64.1674 0.0285731 64.262 0.0650283 64.3526C0.0650283 64.3861 0.0729106 64.4196 0.0857194 64.4511C0.272922 64.8748 0.700534 65.1389 1.16263 65.1162L49.528 90.3512V112.983C47.1604 114.221 47.3437 116.881 47.3565 120.017C47.3713 124.201 48.596 127.085 53.1805 127.499C57.6497 127.901 62.3288 127.499 66.8118 127.499C70.1046 127.499 75.0123 128.388 77.9849 126.442C81.6314 124.06 80.6451 119.234 80.6451 115.493C80.6451 115.46 80.6254 115.441 80.6235 115.409C80.6343 115.338 80.6343 115.265 80.6235 115.194C80.452 114.008 79.6155 113.025 78.4716 112.669V89.6684L78.5081 89.6211L125.516 65.0945C125.758 65.1527 126.008 65.1615 126.254 65.1211C127.115 65.1014 128.019 64.6305 128 63.8511C127.173 29.0451 99.4896 0.295626 64.1299 0.370507ZM123.622 53.151C120.011 49.5626 114.984 47.7782 109.919 48.2876C104.853 48.796 100.282 51.5459 97.457 55.7817C96.1101 38.9304 90.9482 13.2934 76.7434 4.15497C100.678 9.7888 119.049 28.9909 123.622 53.151ZM70.146 3.87515C87.3648 11.4598 92.7956 35.4543 94.2637 54.2988C87.2721 45.5446 72.1885 46.1565 65.5595 55.4348V2.76178C66.0029 2.77459 66.4502 2.77459 66.8897 2.79824C68.007 3.05244 69.0977 3.41207 70.146 3.87515ZM52.546 89.1974C52.5331 89.1757 52.546 89.156 52.5223 89.1344L33.3379 63.5555C35.344 45.6136 60.6952 47.0432 62.4293 64.2984V89.1974H52.546ZM62.447 2.747V54.9077C55.8092 45.6954 40.6369 45.9348 33.667 54.9077C34.2641 44.5376 36.5243 34.3321 40.361 24.6793C43.8607 16.2384 50.6256 5.20035 59.9109 2.84849C60.7553 2.7943 61.5967 2.76474 62.4421 2.747H62.447ZM30.1377 64.2344L30.1565 64.3782C30.1781 64.6285 30.324 64.8512 30.5447 64.9704L46.2244 85.876L3.22384 63.4422C4.36282 53.5924 14.4294 46.4254 23.8871 52.9273C27.7011 55.4023 30.0392 59.6065 30.1289 64.1526C30.1299 64.1792 30.1328 64.2068 30.1377 64.2344ZM62.5584 90.3807C62.9889 91.0271 64.3772 90.9167 65.1142 90.3807H75.3572V112.352C74.8635 112.413 74.365 112.413 73.8714 112.352C70.6909 111.823 71.2111 110.96 69.8642 108.749C68.0405 105.755 65.3763 105.054 61.5691 105.969C59.1562 106.55 59.3178 107.572 58.1246 109.292C55.9058 112.473 55.2949 112.021 52.6514 112.236V90.3807H62.5584ZM65.5723 89.1974V63.8511C67.3202 45.65 92.7799 46.9417 94.6805 64.1289L75.8902 89.1974H65.5723ZM53.5854 3.58843C37.4948 11.9613 32.0443 37.0318 30.5939 55.293C24.7502 46.1752 11.1494 45.9624 4.18645 53.8939C8.75126 28.5968 28.0795 7.96899 53.5854 3.58843ZM74.8212 125.261C72.5225 126.097 68.3636 125.261 65.932 125.261C62.2884 125.478 58.636 125.478 54.9934 125.261C52.5716 124.961 51.1705 124.658 50.5123 121.728C50.2601 120.074 50.2601 118.391 50.5123 116.737C51.1084 113.207 54.1993 115.215 57.0319 114.292C58.3197 113.887 59.4488 113.088 60.2597 112.009C61.1208 110.808 60.774 108.984 62.0234 108.134C63.3141 107.247 65.9635 108.405 66.7281 109.292C67.7478 110.476 67.1586 112.267 68.8632 113.53C71.0002 115.12 76.7769 113.489 77.4982 116.025C77.5612 118.984 78.4007 123.956 74.8212 125.261ZM97.1476 64.7615C97.5161 64.5871 97.7811 64.2501 97.8619 63.8511C98.7615 53.7904 108.995 46.3348 118.58 52.9273C122.387 55.3944 124.724 59.5858 124.823 64.1201L80.1436 87.4387L97.1476 64.7615Z" fill="#262626"/>
</g>
<defs>
<clipPath id="clip0_47_88">
<rect width="128" height="128" fill="white"/>
</clipPath>
</defs>
</svg>
