<svg width="128" height="128" viewBox="0 0 128 128" fill="none" xmlns="http://www.w3.org/2000/svg">
<path d="M39.4572 126.944C38.9796 126.945 38.5597 126.627 38.4283 126.168C38.297 125.709 38.487 125.218 38.893 124.966L40.2891 124.1L35.6093 126.792C35.1088 127.06 34.4859 126.89 34.1913 126.405C33.8958 125.921 34.0311 125.29 34.4988 124.968L55.9295 111.262L29.03 126.792C28.5255 127.065 27.8956 126.892 27.602 126.4C27.3085 125.908 27.4558 125.271 27.9354 124.957L31.0718 123.033L24.5462 126.792C24.0437 127.064 23.4158 126.893 23.1213 126.403C22.8267 125.914 22.969 125.278 23.4447 124.961L47.1092 110.095L18.1897 126.792C17.6862 127.069 17.0534 126.899 16.7569 126.405C16.4613 125.912 16.6086 125.273 17.0902 124.959L36.9298 112.68L12.4701 126.792C11.9676 127.073 11.3338 126.906 11.0352 126.414C10.7357 125.923 10.88 125.283 11.3606 124.966L53.3533 98.2719L5.83306 125.723C5.32956 126 4.6967 125.829 4.40117 125.337C4.10464 124.843 4.2529 124.204 4.73451 123.891L42.517 100.314L3.33147 122.943C2.82399 123.249 2.16526 123.085 1.85978 122.576C1.55429 122.069 1.71848 121.41 2.22695 121.105L43.6633 95.218L2.82499 118.793C2.31751 119.098 1.65977 118.933 1.35528 118.427C1.05079 117.919 1.21498 117.262 1.72146 116.956L48.3969 87.573L2.82499 113.888C2.32049 114.158 1.6936 113.983 1.40205 113.491C1.11049 113 1.25677 112.366 1.7344 112.052L19.2395 101.378L2.82499 110.854C2.32248 111.123 1.69659 110.95 1.40404 110.46C1.11149 109.972 1.25378 109.339 1.72843 109.023L38.0124 86.5182L2.82499 106.832C2.32248 107.101 1.69659 106.928 1.40404 106.438C1.11149 105.95 1.25378 105.317 1.72843 105.001L36.7268 83.3261L2.82499 102.901C2.32248 103.173 1.6946 103.001 1.40006 102.512C1.10552 102.022 1.24781 101.387 1.72445 101.07L47.4794 72.3127L2.82499 98.0898C2.32049 98.3814 1.67469 98.2142 1.37518 97.7147C1.07467 97.2151 1.2299 96.5664 1.72445 96.2579L45.147 69.0628L2.82499 93.4996C2.32348 93.7673 1.69957 93.5961 1.40603 93.1085C1.11248 92.6219 1.2508 91.9901 1.72146 91.6716L47.9282 62.6039L2.82499 88.6437C2.3195 88.9183 1.68763 88.7442 1.39409 88.2496C1.10154 87.7541 1.25279 87.1162 1.73639 86.8048L15.4832 78.4403L2.82499 85.751C2.32248 86.0157 1.69957 85.8406 1.40802 85.352C1.11746 84.8634 1.25975 84.2326 1.73241 83.9161L27.0289 68.4061L2.823 82.3748C2.32049 82.6434 1.6946 82.4703 1.40205 81.9807C1.1095 81.4922 1.25179 80.8593 1.72644 80.5429L38.5746 57.6734L2.823 78.3149C2.31751 78.5995 1.67868 78.4294 1.38115 77.9318C1.08363 77.4343 1.23687 76.7905 1.72644 76.48L40.0901 52.6274L2.823 74.1406C2.32049 74.4023 1.70156 74.2272 1.411 73.7406C1.12144 73.255 1.25975 72.6271 1.72843 72.3087L35.1038 51.6691L2.81902 70.3057C2.31452 70.5743 1.68763 70.4002 1.39608 69.9076C1.10353 69.4161 1.2498 68.7822 1.72843 68.4688L23.5093 55.133L2.823 67.0767C2.31651 67.3653 1.67171 67.1951 1.37419 66.6936C1.07666 66.1911 1.23587 65.5443 1.73241 65.2378L18.5271 54.9747L2.823 64.0408C2.31751 64.3194 1.68166 64.1472 1.38712 63.6517C1.09159 63.1551 1.24383 62.5143 1.73042 62.2039L21.3411 50.1497L2.823 60.8396C2.32348 61.0924 1.7135 60.9173 1.42493 60.4376C1.13537 59.959 1.26473 59.3371 1.72146 59.0137L30.0927 41.2479L2.823 56.9848C2.31751 57.2694 1.67868 57.0992 1.38115 56.6017C1.08363 56.1041 1.23687 55.4603 1.72644 55.1499L19.1778 44.3017L2.823 53.7438C2.32248 54.0235 1.68962 53.8583 1.39011 53.3687C1.09059 52.8791 1.2299 52.2413 1.70654 51.9219L32.8331 31.6843L2.823 49.0034C2.3185 49.3098 1.66076 49.1487 1.35428 48.6442C1.04781 48.1397 1.20901 47.4819 1.7135 47.1754L20.5291 35.1481L2.823 45.3813C2.32049 45.662 1.68664 45.4948 1.38812 45.0032C1.0886 44.5117 1.23289 43.8718 1.7135 43.5554L15.9101 34.4486L2.823 42.0071C2.32248 42.2867 1.68962 42.1215 1.39011 41.6329C1.09059 41.1434 1.2299 40.5045 1.70654 40.1851L14.0891 32.157L2.823 38.6607C2.3195 38.9692 1.66176 38.8109 1.35329 38.3074C1.04482 37.8039 1.20304 37.1452 1.70654 36.8377L9.49589 31.7739L2.81902 35.6228C2.32646 35.9054 1.69858 35.7541 1.38911 35.2775C1.08064 34.7999 1.19806 34.165 1.65778 33.8307L18.2624 21.8103L2.82499 30.7241C2.33741 31.0047 1.71748 30.8594 1.40503 30.3917C1.09159 29.925 1.19408 29.2962 1.63887 28.9519L14.0393 19.3565L2.823 25.8304C2.33144 26.1189 1.70057 25.9717 1.38812 25.495C1.07567 25.0184 1.19109 24.3806 1.65181 24.0452L6.02411 20.8033L2.81703 22.6511C2.3394 22.9108 1.74335 22.7705 1.4309 22.3257C1.11846 21.882 1.1901 21.274 1.59608 20.9128L5.81415 17.3206L2.82101 19.046C2.38119 19.2978 1.82594 19.2072 1.48961 18.8281C1.15328 18.45 1.1294 17.8878 1.4309 17.4808L3.92155 14.1394C3.4061 14.2588 2.88071 13.9821 2.68667 13.4896C2.49164 12.998 2.68767 12.4368 3.1454 12.1721L7.28088 9.78398C7.72069 9.52925 8.27793 9.6198 8.61526 9.99891C8.95258 10.378 8.97646 10.9422 8.67297 11.3492L6.24999 14.5941L14.8732 9.62378C15.3518 9.35212 15.9578 9.48745 16.2752 9.93623C16.5927 10.386 16.517 11.0019 16.1011 11.3622L11.882 14.9533L21.1252 9.62378C21.6167 9.33521 22.2476 9.48248 22.5601 9.95911C22.8735 10.4348 22.7571 11.0726 22.2974 11.4089L17.927 14.6419L26.6289 9.61681C27.1155 9.33919 27.7334 9.48447 28.0458 9.94916C28.3583 10.4149 28.2588 11.0417 27.818 11.387L15.4165 20.9854L35.1148 9.62378C35.6073 9.34118 36.2352 9.49243 36.5447 9.96906C36.8531 10.4457 36.7357 11.0815 36.276 11.4149L19.6774 23.4293L43.6036 9.62378C44.1042 9.34317 44.737 9.50934 45.0365 9.99792C45.336 10.4875 45.1957 11.1263 44.7191 11.4447L36.9258 16.5016L48.8546 9.62378C49.3551 9.34317 49.988 9.50934 50.2875 9.99792C50.587 10.4875 50.4477 11.1263 49.9701 11.4447L37.5825 19.4719L54.6528 9.62378C55.1553 9.34317 55.7892 9.50934 56.0877 10.0019C56.3872 10.4935 56.2429 11.1333 55.7623 11.4497L41.5677 20.5386L60.4918 9.62378C60.9953 9.32824 61.6421 9.49143 61.9456 9.98996C62.2491 10.4885 62.0969 11.1373 61.6043 11.4497L42.7718 23.487L66.7826 9.62378C67.2841 9.33123 67.9269 9.49342 68.2314 9.98797C68.5349 10.4835 68.3877 11.1293 67.9011 11.4447L36.7865 31.6674L74.978 9.62378C75.3053 9.42675 75.7133 9.42078 76.0467 9.60586C76.381 9.79194 76.59 10.1412 76.5969 10.5233C76.6029 10.9054 76.4049 11.2616 76.0765 11.4577L58.6082 22.3178L80.5921 9.62378C81.0986 9.31929 81.7553 9.48248 82.0608 9.98797C82.3653 10.4945 82.2021 11.1512 81.6956 11.4557L53.3274 29.2126L87.27 9.62378C87.7774 9.32128 88.4332 9.48745 88.7357 9.99394C89.0382 10.5014 88.872 11.1582 88.3645 11.4597L68.7578 23.5148L91.8841 10.1561C92.3886 9.88647 93.0154 10.0616 93.307 10.5532C93.5986 11.0447 93.4523 11.6786 92.9747 11.992L76.1213 22.2919L94.1269 11.8965C94.6324 11.6169 95.2673 11.789 95.5628 12.2856C95.8583 12.7811 95.7061 13.4219 95.2195 13.7334L73.4774 27.0473L95.3857 14.3981C95.8912 14.1135 96.531 14.2827 96.8285 14.7802C97.1261 15.2777 96.9728 15.9225 96.4832 16.232L63.1138 36.8656L95.7051 18.05C96.2076 17.7813 96.8325 17.9544 97.1261 18.444C97.4186 18.9326 97.2763 19.5654 96.8017 19.8819L58.4221 43.7455L95.7051 22.2213C96.2096 21.9367 96.8494 22.1068 97.1469 22.6044C97.4445 23.1019 97.2912 23.7457 96.8017 24.0562L59.9684 46.9147L95.7051 26.2811C96.2096 26.0025 96.8454 26.1747 97.141 26.6702C97.4355 27.1667 97.2843 27.8075 96.7977 28.118L71.5141 43.6191L95.7051 29.6594C96.2106 29.3847 96.8425 29.5589 97.135 30.0544C97.4286 30.5499 97.2773 31.1878 96.7927 31.4982L83.0469 39.8627L95.7091 32.55C96.2146 32.2455 96.8723 32.4087 97.1768 32.9152C97.4813 33.4207 97.3181 34.0784 96.8126 34.3829L50.6119 63.4417L95.7051 37.4059C96.2096 37.1154 96.8544 37.2815 97.1549 37.7811C97.4554 38.2816 97.3002 38.9294 96.8056 39.2388L53.3831 66.4309L95.7051 41.9961C96.2076 41.7245 96.8355 41.8956 97.13 42.3852C97.4246 42.8758 97.2823 43.5106 96.8056 43.8271L51.0457 72.5913L95.7051 46.8073C96.2116 46.5048 96.8683 46.6699 97.1718 47.1774C97.4743 47.6849 97.3091 48.3407 96.8017 48.6442L61.8003 70.3136L95.7051 50.7417C96.2096 50.4572 96.8494 50.6263 97.1469 51.1238C97.4445 51.6214 97.2912 52.2662 96.8017 52.5756L60.5326 75.069L95.7051 54.7568C96.2116 54.4683 96.8564 54.6384 97.1539 55.1399C97.4514 55.6424 97.2912 56.2892 96.7947 56.5957L79.2328 67.3036L95.6962 57.7928C96.1997 57.5112 96.8365 57.6793 97.134 58.1739C97.4325 58.6684 97.2843 59.3092 96.7997 59.6237L50.1332 89.0118L95.7071 62.7123C96.2106 62.4357 96.8435 62.6059 97.139 63.0994C97.4355 63.593 97.2882 64.2318 96.8056 64.5452L55.3782 90.4189L95.7071 67.1384C96.2086 66.8737 96.8295 67.0478 97.1221 67.5334C97.4146 68.02 97.2753 68.6499 96.8056 68.9693L59.0042 92.5523L95.7071 71.3634C96.2086 71.0918 96.8345 71.2619 97.13 71.7495C97.4256 72.2371 97.2873 72.8709 96.8146 73.1894L54.8349 99.871L95.7071 76.275C96.2116 75.9905 96.8514 76.1596 97.1489 76.6572C97.4465 77.1547 97.2932 77.7995 96.8036 78.1089L76.977 90.388L95.7071 79.5757C96.2116 79.2851 96.8574 79.4523 97.1569 79.9518C97.4574 80.4513 97.3022 81.0991 96.8076 81.4086L73.1451 96.2728L95.7071 83.2475C96.2116 82.9678 96.8474 83.14 97.143 83.6365C97.4385 84.1321 97.2863 84.7729 96.7997 85.0833L93.6433 87.0277L95.7071 85.8366C96.2086 85.556 96.8435 85.7232 97.142 86.2147C97.4405 86.7063 97.2972 87.3461 96.8166 87.6625L75.3909 101.364L95.7021 89.6338C96.2076 89.3492 96.8474 89.5193 97.145 90.0169C97.4425 90.5144 97.2892 91.1582 96.7997 91.4687L95.4016 92.3383L95.7021 92.1652C96.2046 91.8736 96.8474 92.0358 97.1509 92.5304C97.4544 93.0249 97.3082 93.6717 96.8206 93.9872L78.8975 105.706L95.7071 96.0032C96.2076 95.7056 96.8534 95.8638 97.1609 96.3574C97.4684 96.8519 97.3241 97.5007 96.8355 97.8181L80.5583 108.699L95.7071 99.9565C96.2026 99.6869 96.8226 99.8491 97.1221 100.327C97.4226 100.804 97.3002 101.433 96.8425 101.764L83.8002 110.649L95.6962 103.782C96.1927 103.513 96.8126 103.677 97.1121 104.157C97.4106 104.635 97.2853 105.265 96.8255 105.593L91.694 109.045L95.7071 106.73C96.1987 106.446 96.8265 106.596 97.137 107.071C97.4475 107.547 97.332 108.182 96.8743 108.517L87.869 115.113L95.7071 110.587C96.1927 110.311 96.8096 110.456 97.1211 110.92C97.4335 111.383 97.336 112.009 96.8982 112.355L90.6014 117.273L95.7071 114.327C96.1907 114.049 96.8066 114.189 97.1221 114.649C97.4375 115.108 97.346 115.733 96.9131 116.085L94.4115 118.102L95.7071 117.356C96.1788 117.079 96.7838 117.202 97.1091 117.642C97.4345 118.083 97.3748 118.698 96.9708 119.067L95.5548 120.39C96.0295 120.253 96.537 120.456 96.7867 120.883C97.0803 121.393 96.9052 122.045 96.3957 122.34L88.664 126.792C88.1924 127.074 87.5824 126.953 87.256 126.511C86.9287 126.068 86.9903 125.45 87.3983 125.082L88.7198 123.846L83.6201 126.792C83.1375 127.064 82.5275 126.923 82.2141 126.466C81.9006 126.009 81.9872 125.389 82.4141 125.036L84.9137 123.018L78.3731 126.792C77.8875 127.068 77.2706 126.923 76.9591 126.459C76.6467 125.996 76.7442 125.37 77.182 125.024L83.4748 120.113L71.9032 126.792C71.4117 127.076 70.7838 126.926 70.4733 126.451C70.1628 125.975 70.2783 125.341 70.736 125.004L79.7413 118.408L65.2194 126.792C64.7228 127.061 64.1029 126.897 63.8034 126.417C63.5049 125.938 63.6303 125.309 64.091 124.981L69.2225 121.542L60.1157 126.792C59.6202 127.061 59.0002 126.899 58.7007 126.421C58.4002 125.944 58.5226 125.315 58.9803 124.985L72.0226 116.095L53.4946 126.785C52.995 127.075 52.3562 126.916 52.0507 126.426C51.7452 125.937 51.8836 125.294 52.3632 124.972L68.6384 114.091L46.6436 126.792C46.144 127.067 45.5162 126.902 45.2166 126.415C44.9181 125.929 45.0544 125.294 45.5251 124.972L63.4551 113.247L39.9916 126.792C39.8304 126.889 39.6463 126.942 39.4572 126.944Z" fill="#E4E8EB"/>
<path d="M27.3254 56.2177C26.9065 56.2167 26.5254 55.9709 26.3532 55.5888C26.1801 55.2057 26.2468 54.7579 26.5244 54.4425L28.3115 52.4116L23.4626 55.2127C22.975 55.4923 22.3541 55.347 22.0416 54.8803C21.7292 54.4127 21.8317 53.7838 22.2755 53.4395L22.7929 53.0425L21.6187 53.7201C21.1262 54.0107 20.4913 53.8614 20.1789 53.3818C19.8674 52.9012 19.9898 52.2603 20.4565 51.928L22.0168 50.7976L20.4386 51.7081C19.952 51.9917 19.3281 51.8484 19.0137 51.3807C18.6992 50.913 18.8017 50.2822 19.2485 49.9379L31.636 40.3395L20.5351 46.7537C20.0406 47.0442 19.4057 46.893 19.0952 46.4114C18.7848 45.9288 18.9102 45.2879 19.3788 44.9576L30.7723 36.808L24.4974 40.4291C24.0049 40.7126 23.377 40.5604 23.0675 40.0838C22.7591 39.6071 22.8765 38.9723 23.3362 38.6379L36.8641 28.8276L29.4558 33.1044C28.9553 33.4019 28.3085 33.2437 28.0021 32.7502C27.6946 32.2556 27.8389 31.6068 28.3264 31.2894L31.9017 28.8883C31.5226 28.9192 31.1594 28.7311 30.9673 28.4027C30.6569 27.9261 30.7743 27.2893 31.234 26.9549L40.1737 20.4532L36.6312 22.497C36.1536 22.7717 35.5466 22.6383 35.2272 22.1896C34.9078 21.7418 34.9814 21.1238 35.3974 20.7636L39.4592 17.2421C39.0751 17.0938 38.8094 16.7376 38.7776 16.3267C38.7457 15.9157 38.9527 15.5226 39.3099 15.3177L46.5391 11.1464C47.0157 10.8717 47.6237 11.0051 47.9421 11.4528C48.2615 11.9016 48.1879 12.5185 47.7729 12.8798L45.2942 15.0181L56.6499 8.46267C57.1474 8.14027 57.8121 8.28257 58.1345 8.7801C58.4569 9.27763 58.3146 9.94233 57.8171 10.2647L48.8755 16.7625L56.6091 12.3006C57.1076 12.021 57.7375 12.1832 58.04 12.6678C58.3415 13.1534 58.2092 13.7892 57.7385 14.1136L54.1483 16.5237C54.5205 16.5227 54.8697 16.7048 55.0827 17.0113C55.3921 17.4889 55.2727 18.1247 54.811 18.4581L41.2851 28.2634L48.6874 23.9876C49.182 23.6971 49.8168 23.8483 50.1273 24.3309C50.4377 24.8125 50.3133 25.4534 49.8447 25.7837L38.4542 33.9313L44.1957 30.6177C44.6833 30.3242 45.3161 30.4645 45.6336 30.9372C45.952 31.4108 45.8425 32.0496 45.3868 32.3899L33.0002 41.9883L38.7368 38.6738C39.2303 38.3832 39.8652 38.5325 40.1766 39.0131C40.4891 39.4927 40.3667 40.1335 39.9 40.4659L36.4491 42.9784C36.8681 43.0481 37.2064 43.3605 37.3099 43.7725C37.4134 44.1844 37.2621 44.6193 36.9258 44.879L33.847 47.2482C34.1635 47.3816 34.3963 47.6602 34.4719 47.9955C34.5486 48.3298 34.459 48.6811 34.2321 48.9388L30.4967 53.1768C30.5225 53.2116 30.5464 53.2484 30.5673 53.2863C30.8619 53.7977 30.6867 54.4515 30.1763 54.746L27.8608 56.0824C27.6966 56.1739 27.5125 56.2197 27.3254 56.2177Z" fill="#EFC7A4"/>
<path d="M50.1034 71.1842C49.6765 71.1852 49.2904 70.9325 49.1203 70.5424C48.9501 70.1524 49.0277 69.6976 49.3183 69.3862L49.9233 68.7443L46.962 70.4549C46.4953 70.7275 45.8982 70.6091 45.5709 70.1782C45.2445 69.7474 45.2903 69.1394 45.6793 68.7633L48.7192 65.8069L44.4972 68.2438C44.0126 68.5294 43.3897 68.3911 43.0723 67.9274C42.7539 67.4637 42.8494 66.8328 43.2912 66.4846L44.0823 65.8427L43.6156 66.1124C43.1738 66.3661 42.6135 66.2726 42.2782 65.8885C41.9419 65.5044 41.925 64.9362 42.2374 64.5322L46.3381 59.2296C46.3142 59.1987 46.2933 59.1659 46.2754 59.131C45.9798 58.6206 46.155 57.9668 46.6654 57.6713L48.4357 56.6494C48.8775 56.3926 49.4407 56.4852 49.777 56.8703C50.1133 57.2554 50.1302 57.8245 49.8168 58.2295L47.2505 61.5451L55.0787 57.0255C55.5623 56.7459 56.1802 56.8852 56.4957 57.3469C56.8121 57.8086 56.7186 58.4355 56.2827 58.7848L55.3205 59.5569C55.7912 59.4226 56.2927 59.6256 56.5384 60.0495C56.7842 60.4724 56.7096 61.0087 56.3593 61.351L53.3274 64.3034L55.016 63.3262C55.4747 63.0576 56.0618 63.166 56.3932 63.582C56.7245 63.9979 56.6996 64.5939 56.3355 64.981L54.6747 66.7642C55.0369 66.9323 55.2757 67.2876 55.2936 67.6866C55.3115 68.0856 55.1056 68.4617 54.7603 68.6608L50.6397 71.039C50.4775 71.1345 50.2914 71.1842 50.1034 71.1842Z" fill="#E3B692"/>
<path d="M60.9137 71.1136C60.5008 71.1136 60.1256 70.8758 59.9485 70.5036C59.7714 70.1315 59.8241 69.6907 60.0839 69.3712L63.9666 64.588L57.4599 68.3423C56.9892 68.612 56.3902 68.4856 56.0678 68.0488C55.7464 67.611 55.8031 67.002 56.2011 66.6318L59.8361 63.2815L56.3593 65.2895C55.9155 65.5452 55.3533 65.4517 55.017 65.0646C54.6817 64.6785 54.6667 64.1084 54.9822 63.7044L56.9176 61.2227L56.2757 61.5968C55.8877 61.8217 55.4011 61.7809 55.0558 61.4943C54.7115 61.2077 54.5822 60.7361 54.7324 60.3142L55.1593 59.0883C55.017 58.9987 54.8996 58.8743 54.818 58.7271C54.5224 58.2166 54.6966 57.5628 55.2071 57.2673L56.2757 56.6444C56.6638 56.4185 57.1524 56.4583 57.4977 56.7449C57.843 57.0325 57.9723 57.5041 57.8221 57.928L57.6867 58.3081L60.5973 56.6275C61.0401 56.3717 61.6033 56.4653 61.9386 56.8524C62.275 57.2384 62.2889 57.8086 61.9735 58.2116L60.0391 60.6943L67.1349 56.5956C67.6065 56.326 68.2056 56.4523 68.527 56.8892C68.8494 57.327 68.7926 57.936 68.3946 58.3061L64.7597 61.6565L67.907 59.8395C68.3538 59.5818 68.92 59.6803 69.2534 60.0714C69.5877 60.4634 69.5957 61.0386 69.2713 61.4386L65.3865 66.2239L67.505 65.0009C68.0165 64.7104 68.6653 64.8865 68.9598 65.395C69.2534 65.9044 69.0812 66.5552 68.5747 66.8517L61.4521 70.9703C61.2889 71.0658 61.1028 71.1156 60.9137 71.1136Z" fill="#E3B692"/>
<path d="M28.7523 78.9349C28.2996 78.9339 27.8966 78.6494 27.7453 78.2235C27.5941 77.7966 27.7274 77.3209 28.0787 77.0364L29.3056 76.0373L27.2209 77.2413C26.7373 77.52 26.1214 77.3797 25.806 76.9199C25.4905 76.4602 25.5811 75.8343 26.0149 75.4841L34.0242 68.9943L23.9541 74.8084C23.4596 75.093 22.8277 74.9398 22.5203 74.4591C22.2118 73.9785 22.3362 73.3407 22.8019 73.0103L29.7355 68.0927L21.9909 72.5636C21.4934 72.8312 20.8724 72.665 20.5749 72.1844C20.2774 71.7028 20.4067 71.0739 20.8685 70.7476L21.7342 70.1724C21.2356 70.4371 20.6157 70.2669 20.3222 69.7853C20.0276 69.3027 20.159 68.6739 20.6227 68.3515L35.9685 57.6088L23.5024 64.806C23.0039 65.0817 22.377 64.9175 22.0775 64.4329C21.7769 63.9493 21.9093 63.3144 22.378 62.9911L31.1037 57.1988L27.0866 59.5183C26.5861 59.8088 25.9453 59.6476 25.6408 59.1561C25.3363 58.6645 25.4786 58.0197 25.9612 57.7013L34.5038 52.0354L30.6549 54.2614C30.1554 54.5499 29.5175 54.3917 29.2121 53.9022C28.9066 53.4126 29.0449 52.7688 29.5235 52.4474L41.1787 44.6162L34.6272 48.3965C34.1306 48.685 33.4948 48.5298 33.1863 48.0442C32.8789 47.5586 33.0102 46.9178 33.4839 46.5914L50.3512 34.9044L39.5448 41.1435C39.0542 41.432 38.4223 41.2848 38.1099 40.8081C37.7975 40.3315 37.9129 39.6947 38.3736 39.3583L52.7692 28.6932L44.9052 33.2327C44.4206 33.5143 43.8007 33.374 43.4852 32.9103C43.1688 32.4476 43.2643 31.8187 43.7041 31.4705L53.1135 23.9279L49.9661 25.7449C49.5014 26.0066 48.9153 25.8852 48.5919 25.4603C48.2685 25.0364 48.3073 24.4384 48.6834 24.0602L54.7812 17.9983C54.3702 17.9933 53.9991 17.7525 53.8259 17.3804C53.6528 17.0082 53.7085 16.5694 53.9692 16.252L56.6837 12.9524C56.5365 12.4757 56.7375 11.9603 57.1693 11.7105L58.3584 11.0239C58.8062 10.7652 59.3754 10.8637 59.7097 11.2588C60.0431 11.6538 60.047 12.2309 59.7187 12.63L59.3674 13.0578L60.4361 12.4349C60.9018 12.1732 61.4879 12.2946 61.8113 12.7195C62.1347 13.1434 62.0949 13.7414 61.7197 14.1196L56.021 19.7835L64.2621 15.0241C64.7467 14.7425 65.3666 14.8828 65.6821 15.3465C65.9975 15.8092 65.902 16.4381 65.4632 16.7863L56.0389 24.3319L67.8961 17.4898C68.3877 17.2013 69.0185 17.3485 69.332 17.8252C69.6444 18.3008 69.528 18.9386 69.0683 19.275L54.6787 29.9361L71.736 20.083C72.2336 19.7944 72.8694 19.9496 73.1769 20.4352C73.4844 20.9198 73.354 21.5616 72.8804 21.888L56.0041 33.581L67.2573 27.0852C67.7568 26.7967 68.3946 26.9549 68.7001 27.4444C69.0056 27.934 68.8673 28.5778 68.3887 28.8982L56.7355 36.7284L63.282 32.9501C63.7815 32.6755 64.4074 32.8387 64.7079 33.3233C65.0074 33.8079 64.8751 34.4417 64.4074 34.7651L55.8777 40.423L59.7266 38.206C60.2272 37.9155 60.868 38.0767 61.1725 38.5682C61.476 39.0598 61.3347 39.7046 60.8511 40.023L52.1254 45.8133L56.1414 43.4958C56.638 43.2003 57.2788 43.3535 57.5882 43.8401C57.8987 44.3277 57.7664 44.9725 57.2897 45.2979L41.9309 56.0415L51.2895 50.6393C51.79 50.3488 52.4308 50.509 52.7353 51.0015C53.0398 51.4931 52.8975 52.1379 52.4139 52.4563L49.0665 54.6693C49.5183 54.6982 49.9024 55.0087 50.0258 55.4445C50.1502 55.8803 49.985 56.347 49.6158 56.6087L42.6902 61.5263L44.6982 60.3671C45.1808 60.0904 45.7948 60.2308 46.1102 60.6885C46.4256 61.1472 46.3371 61.7711 45.9062 62.1224L37.8989 68.6122L39.8891 67.4619C40.3727 67.1793 40.9916 67.3176 41.309 67.7783C41.6265 68.238 41.5349 68.8659 41.0991 69.2172L37.7875 71.9068C38.0014 71.9974 38.1805 72.1546 38.296 72.3556C38.5915 72.867 38.4164 73.5208 37.9049 73.8163L29.2867 78.7936C29.1235 78.8872 28.9394 78.9359 28.7523 78.9349Z" fill="#FFD67B"/>
<path d="M71.5012 21.4809C71.0902 21.4809 70.7161 21.2441 70.539 20.8739C70.3618 20.5028 70.4126 20.0639 70.6693 19.7435L73.1858 16.6041L68.7926 19.1425C68.3339 19.4082 67.7498 19.2977 67.4195 18.8828C67.0901 18.4688 67.113 17.8748 67.4752 17.4877L71.9161 12.7084L65.1 16.6449C64.6343 16.9096 64.0442 16.7892 63.7198 16.3633C63.3954 15.9364 63.4372 15.3354 63.8173 14.9583L68.9757 9.84762L61.465 14.1841C60.9973 14.4617 60.3963 14.3433 60.0679 13.9105C59.7396 13.4766 59.7883 12.8656 60.1824 12.4905L65.1338 7.68436L60.3555 10.4447C59.8858 10.6934 59.3037 10.5591 58.9903 10.1292C58.6778 9.69936 58.7276 9.10531 59.1087 8.73415L62.2929 5.88131C62.2083 5.80867 62.1357 5.72309 62.079 5.62757C61.9367 5.38179 61.8978 5.08924 61.9705 4.8146C62.0441 4.54096 62.2242 4.30612 62.47 4.16482L67.4493 1.28511C67.9239 1.01048 68.5289 1.13983 68.8504 1.58363C69.1718 2.02843 69.1051 2.64337 68.6961 3.00856L68.2195 3.43544L71.5251 1.52592C71.9928 1.24929 72.5938 1.36671 72.9221 1.80056C73.2505 2.23341 73.2018 2.84438 72.8077 3.21952L67.8513 8.02865L75.0715 3.85038C75.5372 3.58868 76.1233 3.71008 76.4467 4.13497C76.7701 4.55887 76.7302 5.1569 76.3551 5.53502L71.1997 10.6566L77.0069 7.30126C77.4656 7.03558 78.0497 7.14603 78.3791 7.56097C78.7094 7.97492 78.6855 8.56897 78.3243 8.95605L73.8834 13.7333L77.0497 11.9044C77.4955 11.6477 78.0606 11.7442 78.396 12.1343C78.7313 12.5253 78.7403 13.0985 78.4179 13.4995L74.6595 18.1862C74.9202 18.4131 75.0566 18.7524 75.0227 19.0967C74.9899 19.441 74.7919 19.7475 74.4924 19.9206L72.0355 21.3386C71.8733 21.4321 71.6893 21.4809 71.5012 21.4809Z" fill="#EB5463"/>
<path d="M21.4824 86.3044C21.0376 86.3054 20.6396 86.0298 20.4814 85.6138C20.3242 85.1979 20.4406 84.7282 20.7749 84.4337L24.4099 81.2266L19.746 83.9123C19.2684 84.1839 18.6614 84.0486 18.345 83.5998C18.0276 83.1501 18.1032 82.5331 18.5191 82.1739L21.0117 80.0355L17.8047 81.8853C17.333 82.159 16.731 82.0346 16.4076 81.5958C16.0842 81.1569 16.1419 80.544 16.5429 80.1748L19.9212 77.0493L18.6126 77.8036C18.1579 78.0633 17.5818 77.9548 17.2524 77.5479C16.923 77.1409 16.937 76.5548 17.2852 76.1637L19.5649 73.6412C19.1768 73.7328 18.7699 73.6014 18.5092 73.2999C18.2485 72.9984 18.1768 72.5765 18.3241 72.2064L19.9172 68.2082C19.8943 68.1754 19.8724 68.1415 19.8535 68.1077C19.558 67.5962 19.7331 66.9425 20.2446 66.6469L20.9501 66.241C21.3441 66.0131 21.8386 66.0599 22.1829 66.3574C22.5272 66.6539 22.6466 67.1365 22.4785 67.5604L21.4506 70.1426L24.2785 68.5117C24.7343 68.249 25.3124 68.3565 25.6438 68.7644C25.9741 69.1724 25.9602 69.7605 25.6089 70.1516L23.4297 72.5606L27.1244 70.4232C27.5961 70.1526 28.1951 70.2799 28.5165 70.7168C28.8389 71.1546 28.7822 71.7636 28.3842 72.1337L25.0039 75.2632L30.022 72.3725C30.4997 72.1009 31.1067 72.2362 31.4231 72.686C31.7405 73.1348 31.6649 73.7517 31.2489 74.1109L28.7543 76.2493L32.5405 74.0641C33.0162 73.7885 33.6242 73.9189 33.9446 74.3647C34.266 74.8114 34.1953 75.4284 33.7834 75.7916L29.4578 79.6146C29.9255 79.6484 30.3176 79.9848 30.422 80.4425C30.5265 80.9002 30.3196 81.3729 29.9126 81.6077L22.0168 86.1681C21.8546 86.2606 21.6695 86.3074 21.4824 86.3044Z" fill="#B29580"/>
<path d="M16.7956 90.4787C16.3638 90.4787 15.9737 90.218 15.8085 89.819C15.6424 89.4199 15.7339 88.9602 16.0384 88.6547L17.8066 86.8756L15.6961 88.0925C15.2463 88.3532 14.6732 88.2508 14.3398 87.8517C14.0065 87.4517 14.0105 86.8696 14.3478 86.4736L16.5857 83.8416C16.2016 83.9143 15.8075 83.771 15.5598 83.4685C15.312 83.165 15.2493 82.75 15.3976 82.3878L16.7887 78.9857C16.7698 78.9579 16.7529 78.933 16.7359 78.9031C16.4404 78.3917 16.6155 77.7379 17.127 77.4424L17.8285 77.0384C18.2236 76.8095 18.7211 76.8583 19.0654 77.1588C19.4107 77.4583 19.5251 77.9449 19.353 78.3678L18.5619 80.3032L20.751 79.0395C21.2018 78.7788 21.7739 78.8802 22.1073 79.2803C22.4406 79.6803 22.4376 80.2614 22.1003 80.6584L19.9729 83.155L23.6934 81.0176C24.1561 80.7659 24.7333 80.8893 25.0527 81.3072C25.3731 81.7261 25.3402 82.3152 24.976 82.6953L22.0575 85.6337C22.4287 85.7929 22.6785 86.1482 22.7033 86.5512C22.7282 86.9552 22.5222 87.3373 22.173 87.5403L17.33 90.3354C17.1678 90.4299 16.9837 90.4797 16.7956 90.4787Z" fill="#424852"/>
<path d="M87.1734 64.8448C86.7077 64.8438 86.2958 64.5413 86.1555 64.0975C86.0152 63.6527 86.1793 63.1691 86.5605 62.9015L92.8502 58.4923L82.4061 64.5264C81.9066 64.805 81.2747 64.6418 80.9742 64.1542C80.6737 63.6677 80.81 63.0298 81.2836 62.7084L83.0877 61.5153L78.9094 63.9314C78.4159 64.2219 77.78 64.0707 77.4696 63.5881C77.1601 63.1064 77.2845 62.4656 77.7532 62.1353L94.7986 49.9487L73.757 62.0994C73.2565 62.384 72.6206 62.2208 72.3181 61.7303C72.0166 61.2397 72.1569 60.5989 72.6366 60.2795L82.2578 53.9529L71.1211 60.382C70.6186 60.6934 69.9598 60.5392 69.6484 60.0367C69.3379 59.5352 69.4922 58.8764 69.9937 58.565L83.8917 49.3587L68.2623 58.3809C67.7637 58.6605 67.1339 58.4983 66.8314 58.0137C66.5299 57.5281 66.6622 56.8923 67.1329 56.5679L84.9226 44.659L61.1446 58.3729C60.648 58.6615 60.0112 58.5063 59.7037 58.0207C59.3962 57.5351 59.5266 56.8933 60.0003 56.5679L81.5145 41.6947L52.6199 58.3729C52.1164 58.6545 51.4795 58.4864 51.181 57.9918C50.8835 57.4973 51.0318 56.8555 51.5163 56.542L51.9273 56.2833L48.3093 58.3729C47.8097 58.6685 47.1669 58.5122 46.8585 58.0207C46.55 57.5291 46.6903 56.8813 47.1739 56.5619L69.128 41.6947L40.9259 57.9859C40.4234 58.2953 39.7647 58.1391 39.4542 57.6356C39.1437 57.1331 39.301 56.4734 39.8035 56.1639L58.3285 44.0281L37.6163 55.9888C37.1307 56.2525 36.5228 56.1022 36.2163 55.6415C35.9098 55.1808 36.0053 54.5628 36.4362 54.2156L42.724 49.3626L35.7566 53.3867C35.2759 53.6713 34.657 53.5389 34.3356 53.0812C34.0142 52.6245 34.0998 51.9966 34.5316 51.6413L39.5169 47.4471L34.9356 50.092C34.4869 50.3497 33.9177 50.2512 33.5843 49.8552C33.25 49.4602 33.247 48.882 33.5774 48.484L36.7745 44.6351C36.2541 44.8928 35.6232 44.6888 35.3526 44.1744C35.0829 43.6609 35.272 43.0251 35.7794 42.7425L40.8712 39.8031C41.3199 39.5414 41.8911 39.6409 42.2255 40.0379C42.5608 40.4349 42.5618 41.0151 42.2284 41.4131L39.0383 45.262L48.9381 39.5464C49.4168 39.2727 50.0257 39.409 50.3432 39.8608C50.6606 40.3126 50.581 40.9315 50.1611 41.2887L45.1788 45.4839L55.4658 39.5274C55.9543 39.2299 56.5902 39.3702 56.9086 39.8459C57.227 40.3215 57.1146 40.9623 56.6539 41.3016L50.368 46.1536L90.0899 23.2224C90.5934 22.9129 91.2512 23.0691 91.5606 23.5726C91.8701 24.0751 91.7139 24.7339 91.2104 25.0433L72.6813 37.1791L93.8921 24.9349C94.3896 24.6503 95.0235 24.8105 95.327 25.2961C95.6314 25.7827 95.4981 26.4215 95.0245 26.7459L73.0704 41.6161L99.2963 26.4782C99.8027 26.1737 100.459 26.3369 100.765 26.8424C101.069 27.3489 100.906 28.0056 100.4 28.3101L99.9918 28.5668L103.199 26.722C103.694 26.4424 104.323 26.5996 104.628 27.0812C104.932 27.5628 104.806 28.1987 104.34 28.527L82.8101 43.4052L111.781 26.6792C112.283 26.3668 112.942 26.52 113.254 27.0215C113.566 27.523 113.413 28.1817 112.913 28.4942L95.112 40.4121L112.818 30.1898C113.319 29.9002 113.959 30.0604 114.263 30.552C114.567 31.0445 114.426 31.6893 113.943 32.0078L100.046 41.2181L112.827 33.8377C113.328 33.5531 113.963 33.7163 114.265 34.2069C114.567 34.6964 114.426 35.3382 113.948 35.6577L104.349 41.9753L112.831 37.0766C113.326 36.787 113.96 36.9383 114.271 37.4199C114.581 37.9015 114.456 38.5423 113.987 38.8727L96.9409 51.0602L112.842 41.8788C113.343 41.5892 113.982 41.7494 114.287 42.241C114.591 42.7335 114.449 43.3783 113.966 43.6968L112.157 44.8898L112.848 44.4918C113.343 44.2112 113.971 44.3674 114.277 44.8471C114.583 45.3267 114.46 45.9615 113.996 46.2919L107.714 50.6751L112.846 47.7079C113.339 47.4253 113.966 47.5765 114.275 48.0531C114.584 48.5298 114.466 49.1656 114.007 49.499L110.843 51.8045L112.859 50.6393C113.265 50.4055 113.776 50.4632 114.12 50.7826C114.463 51.101 114.559 51.6065 114.356 52.0284L113.013 54.8086C113.537 54.5937 114.138 54.8245 114.382 55.335C114.627 55.8455 114.432 56.4584 113.937 56.7321L111.091 58.3769C110.685 58.6108 110.173 58.552 109.83 58.2336C109.487 57.9142 109.391 57.4097 109.594 56.9868L110.929 54.2076L94.0075 63.9781C93.514 64.2617 92.8871 64.1095 92.5776 63.6328C92.2691 63.1562 92.3865 62.5213 92.8463 62.187L96.0126 59.8904L87.7078 64.7015C87.5456 64.7961 87.3615 64.8458 87.1734 64.8448Z" fill="#EFC7A4"/>
<path d="M62.6949 36.8288C62.2342 36.8288 61.8262 36.5342 61.6799 36.0974C61.5346 35.6615 61.6849 35.1809 62.0531 34.9043L66.7418 31.4664C66.2582 31.7281 65.6552 31.5808 65.3467 31.1261C65.0393 30.6703 65.1258 30.0564 65.5487 29.7041L70.3041 25.6851C69.9708 25.7119 69.6464 25.5746 69.4335 25.3169C69.0981 24.9288 69.0862 24.3576 69.4036 23.9556L73.5799 18.6679C73.3709 18.1713 73.564 17.5962 74.0306 17.3275L75.3133 16.5812C75.7581 16.3225 76.3233 16.417 76.6596 16.8051C76.9959 17.1942 77.0079 17.7673 76.6885 18.1693L74.5292 20.9038L79.0786 18.2768C79.5582 17.9972 80.1712 18.1325 80.4906 18.5863C80.809 19.04 80.7284 19.6619 80.3035 20.0192L76.0446 23.6213L82.5922 19.844C83.0847 19.5465 83.7235 19.6938 84.038 20.1754C84.3524 20.657 84.229 21.3018 83.7594 21.6332L79.0726 25.0691L85.7007 21.2441C86.2112 20.9535 86.861 21.1297 87.1545 21.6391C87.4481 22.1476 87.2769 22.7984 86.7694 23.0959L63.2292 36.6855C63.067 36.78 62.882 36.8297 62.6949 36.8288Z" fill="#EFC7A4"/>
<path d="M118.272 62.7979C117.845 62.7979 117.459 62.5442 117.29 62.1511C117.121 61.7591 117.202 61.3033 117.496 60.9939L120.342 58.0007L112.799 62.3561C112.323 62.6327 111.714 62.5024 111.393 62.0546C111.072 61.6068 111.143 60.9879 111.558 60.6257L117.332 55.5648L110.09 59.7471C109.611 60.0247 108.999 59.8903 108.681 59.4386C108.361 58.9858 108.441 58.3649 108.863 58.0067L116.628 51.3786L109.731 55.3469C109.241 55.6374 108.609 55.4922 108.295 55.0165C107.98 54.5419 108.094 53.904 108.552 53.5657L111.403 51.4273L109.731 52.3945C109.239 52.6861 108.604 52.5388 108.291 52.0602C107.977 51.5816 108.097 50.9408 108.561 50.6064L110.101 49.474L109.729 49.687C109.243 49.9636 108.626 49.8183 108.315 49.3546C108.002 48.8919 108.1 48.266 108.537 47.9187L113.319 44.1962L109.729 46.2689C109.241 46.5485 108.621 46.4033 108.308 45.9366C107.995 45.4689 108.098 44.84 108.542 44.4957L113.032 41.013L109.72 42.9245C109.233 43.2081 108.609 43.0648 108.295 42.5972C107.98 42.1295 108.083 41.4986 108.529 41.1543L113.297 37.4407L109.72 39.5075C109.235 39.7891 108.615 39.6488 108.3 39.1861C107.984 38.7224 108.08 38.0945 108.519 37.7462L113.847 33.4894L109.72 35.8705C109.255 36.1362 108.665 36.0158 108.34 35.5889C108.016 35.1621 108.058 34.562 108.437 34.1839L114.248 28.4384L109.729 31.0475C109.306 31.2913 108.77 31.2166 108.43 30.8664C108.089 30.5171 108.029 29.9808 108.284 29.5638L110.218 26.4055C109.694 26.6264 109.087 26.3965 108.84 25.8841C108.593 25.3706 108.792 24.7537 109.293 24.4811L112.781 22.4651C113.208 22.2093 113.754 22.282 114.1 22.6392C114.445 22.9964 114.499 23.5437 114.229 23.9616L112.305 27.0981L120.355 22.4521C120.82 22.1874 121.411 22.3078 121.735 22.7337C122.059 23.1606 122.018 23.7616 121.637 24.1388L115.835 29.8822L125.061 24.5477C125.546 24.2592 126.171 24.3985 126.489 24.8642C126.808 25.3298 126.709 25.9617 126.264 26.309L120.937 30.5768L125.641 27.8613C126.127 27.5777 126.751 27.721 127.065 28.1887C127.38 28.6563 127.277 29.2882 126.832 29.6315L122.063 33.3441L125.641 31.2783C126.128 30.9987 126.748 31.144 127.061 31.6107C127.374 32.0774 127.271 32.7072 126.827 33.0505L122.324 36.5382L125.643 34.6138C126.129 34.3302 126.753 34.4735 127.067 34.9411C127.382 35.4088 127.279 36.0397 126.834 36.384L122.052 40.1065L125.643 38.0348C126.133 37.7532 126.758 37.9034 127.068 38.3761C127.378 38.8498 127.265 39.4826 126.812 39.8199L125.281 40.9493L125.643 40.7354C126.132 40.4528 126.757 40.6001 127.069 41.0717C127.381 41.5434 127.27 42.1772 126.819 42.5166L123.971 44.6539L125.643 43.6897C126.121 43.4121 126.733 43.5464 127.053 43.9992C127.371 44.451 127.292 45.0729 126.869 45.4301L119.104 52.0582L125.643 48.2829C126.119 48.0063 126.727 48.1367 127.049 48.5844C127.369 49.0322 127.297 49.6502 126.882 50.0124L121.11 55.0713L125.637 52.4582C126.096 52.1925 126.681 52.305 127.011 52.7219C127.34 53.1388 127.312 53.7339 126.947 54.12L124.099 57.1281L125.634 56.2405C126.146 55.9459 126.8 56.121 127.095 56.6335C127.391 57.145 127.215 57.7997 126.703 58.0943L118.793 62.6546C118.634 62.7462 118.455 62.7959 118.272 62.7979Z" fill="#AC92EA"/>
<path d="M0.678625 119.705C2.40406 128.967 12.7865 126.606 19.943 126.606H63.9367C72.0614 126.606 81.5523 127.943 89.6153 126.559C100.906 124.619 97.8514 111.763 97.8514 103.052V63.5403C101.459 62.9482 104.902 61.6059 107.958 59.5998C107.988 59.6655 108.003 59.7431 108.035 59.8138C110.248 64.2368 117.466 62.7402 121.375 62.7402C121.488 62.7333 121.601 62.7154 121.711 62.6845C121.87 62.6875 122.03 62.6746 122.188 62.6467C127.062 61.6626 127.791 58.6117 127.791 54.2354V35.1701C127.791 32.0227 128.848 26.2364 126.207 23.7736C123.614 21.3536 116.844 21.873 113.592 22.3815C111.011 22.476 108.771 24.1905 108.007 26.6583C104.579 26.518 101.177 25.9956 97.8644 25.101C98.0335 20.0421 99.1211 12.8239 93.8274 10.3761C91.3975 9.62182 88.8372 9.384 86.3097 9.67954H79.4677C79.3373 6.95008 77.9422 4.43755 75.6944 2.88426C71.7311 0.572726 66.7707 0.849354 63.0899 3.58777C61.3406 5.04354 59.8709 6.80679 58.7535 8.78995C55.7722 8.32924 52.7214 8.68447 49.9253 9.81785H15.4274C8.65803 9.80989 2.08564 9.40988 0.678625 17.6838C-0.817949 26.5339 0.678625 36.8806 0.678625 45.8341V93.3305C0.678625 101.607 -0.847801 111.526 0.678625 119.705ZM124.689 28.1399C125.482 30.754 124.689 34.8815 124.689 37.5881C124.689 41.1544 127.362 59.2943 121.937 60.8636C117.941 60.9641 112.245 61.8556 110.693 57.1022C110.607 56.8276 110.541 56.547 110.496 56.2624C110.959 53.5349 111.026 50.7547 110.693 48.0093V33.8735C110.693 33.8158 110.693 33.7581 110.693 33.7033V28.5887C110.834 27.5728 111.256 26.6165 111.912 25.8284C114.65 22.5616 123.29 23.5427 124.682 28.1399H124.689ZM107.646 28.6653C107.629 28.8494 107.597 29.0186 107.584 29.2126C107.197 35.6099 107.584 42.1634 107.584 48.5716C107.301 51.5657 107.239 54.5758 107.402 57.5789C105.151 60.6795 90.6691 63.0547 86.2182 63.0418C80.7314 63.0228 73.4684 61.7123 69.9678 56.9331C69.938 56.7948 69.8186 56.6853 69.5877 56.6216C69.4285 56.5321 69.2504 56.4833 69.0683 56.4803H56.2399C56.1086 56.4634 55.9762 56.4544 55.8439 56.4524H43.3041C38.7796 55.6594 35.4461 52.7389 35.9407 47.9367C35.9884 47.6183 36.0541 47.3019 36.1367 46.9914C36.1516 46.9317 36.1626 46.872 36.1735 46.8093C37.2034 42.433 41.1697 41.3782 45.2027 41.3782H59.3764C59.7853 41.3514 60.1804 41.218 60.5217 40.9892C67.4175 40.9016 74.3471 40.0638 78.5831 33.7073C78.7283 33.4934 76.0297 33.5491 75.5382 34.2864C72.136 39.3901 66.9169 39.8011 61.4461 39.82L73.9819 21.3257C74.0695 21.1874 74.0993 21.0193 74.0625 20.8591C74.565 20.1257 75.0974 19.3923 75.6347 18.657C81.608 21.4063 87.5565 24.4065 93.6782 26.7628C94.0732 26.917 94.4543 27.0105 94.8434 27.1389C95.0344 27.3041 95.2862 27.3817 95.5379 27.3528C98.352 28.13 101.263 28.5051 104.182 28.4643C106.609 28.5011 107.422 28.2076 107.635 28.6653H107.646ZM62.4203 69.2897C58.649 69.1674 57.5504 66.3394 57.2718 63.1811C57.3813 61.6526 57.3126 60.0765 57.2718 58.554H66.9687C67.0801 62.6596 67.719 68.8768 62.4143 69.2897H62.4203ZM26.5731 81.9151L19.4296 77.0492C19.4296 77.0164 19.4535 76.9786 19.4644 76.9438C20.2326 74.283 21.0008 71.6212 21.771 68.9604C25.598 71.5635 29.425 74.1685 33.253 76.7756L26.5731 81.9151ZM18.1599 88.5432H16.9797C16.7767 88.19 16.6583 87.7949 16.6335 87.3889C16.7031 84.6834 17.3509 82.0246 18.534 79.5906L24.4069 83.5918L19.8963 87.0506C19.348 87.4725 18.7221 88.1561 18.1599 88.5372V88.5432ZM34.7874 74.4999C30.8818 71.8829 26.8766 69.3365 23.1163 66.5354C23.0158 66.4598 22.9073 66.3941 22.7929 66.3414C22.8815 66.2379 22.9571 66.1235 23.0178 66.0011C23.8467 64.6 24.7571 63.2497 25.7452 61.9561L30.1096 55.5091C30.3494 55.3559 30.4987 55.0952 30.5096 54.8106C30.5096 53.7409 31.64 52.5229 32.8938 51.2393C33.052 51.7468 33.2401 52.2682 33.4729 52.8175C34.9088 56.1231 38.1477 58.2804 41.7518 58.3321C42.0304 58.5112 42.3578 58.5988 42.6882 58.5819H45.5639C41.9757 63.8856 38.3845 69.1902 34.7874 74.4939V74.4999ZM58.6729 13.419L65.899 18.3515C67.4583 19.257 68.9499 20.275 70.3619 21.3964C70.4444 21.473 70.535 21.5407 70.6335 21.5974C70.5131 21.7377 70.4096 21.8919 70.325 22.0561C66.7199 28.0484 62.7944 33.8416 58.5654 39.412C53.8985 39.2856 46.0574 38.9324 40.1587 40.4618C40.9458 39.3752 41.9359 38.0886 42.312 37.5323L49.9173 26.311C52.8378 22.0143 55.7563 17.7167 58.6729 13.419ZM48.6944 58.5859H54.1075C54.0886 60.2735 54.0607 61.9641 54.1204 63.6497V64.0468C54.2846 66.7125 52.2915 69.0221 49.6307 69.2489C47.0744 69.1325 44.9519 67.2349 44.5499 64.7075L48.6944 58.5859ZM83.6688 11.2866C85.9873 11.2866 89.1745 10.7652 91.3497 11.7831C95.4524 13.7076 95.121 19.662 94.8643 24.2094C88.7884 22.0213 82.8379 19.4978 77.0407 16.6519C77.59 15.8569 78.0895 15.029 78.5383 14.1732C78.994 13.2687 79.2896 12.2926 79.4119 11.2866H83.6688ZM72.7838 3.94698C79.2239 8.3362 75.6984 14.4688 72.357 19.3884L60.1993 11.0816C60.1993 10.8209 60.454 10.4557 60.9366 9.74322C63.7118 5.66546 66.6781 0.280178 72.7838 3.94698ZM57.6808 10.5064L57.4857 10.8119C57.2569 10.9602 57.0579 11.1492 56.8977 11.3701C53.3105 16.6151 49.7631 21.8899 46.2077 27.1498L38.7885 38.0707C37.681 39.2737 36.7457 40.625 36.0083 42.0847C33.6699 43.2748 32.247 45.7277 32.3743 48.3487C30.9643 50.288 27.9095 52.52 27.4438 54.5778C26 54.6016 24.588 54.1509 23.4258 53.2941C21.1411 51.2761 20.3968 48.0263 21.5739 45.2142C21.8844 44.4351 22.2934 43.6987 22.7909 43.0231C22.9869 42.9286 23.1451 42.7723 23.2417 42.5783C23.2646 42.5037 23.2765 42.4251 23.2765 42.3474C23.576 41.9365 23.8725 41.5305 24.1313 41.1355L33.7595 26.9419C35.8202 23.4572 38.091 20.1008 40.5607 16.8927C43.7061 13.2946 52.6856 8.85364 57.6808 10.5064ZM3.77426 101.438V26.6046C3.46281 23.4044 3.46281 20.1824 3.77426 16.9833C5.27084 10.0129 9.48095 11.1333 15.0125 11.1333H46.6824C45.2007 11.8189 43.7997 12.5592 42.5339 13.2458C36.9088 16.2987 33.9455 22.5974 30.4449 27.7678C30.1842 28.1549 29.9046 28.5419 29.6329 28.928H13.5458C12.5109 28.928 10.2163 30.4853 12.288 30.4853H28.5254C25.8696 34.1203 22.9302 37.8269 20.6376 41.6798H13.5269C12.9577 41.6798 11.7218 41.8937 11.478 42.5166C11.2342 43.1385 11.681 43.3903 12.3079 43.3903H19.6734C19.4425 43.8181 19.2027 44.246 18.9937 44.6868C17.9559 46.3695 17.6564 48.4064 18.1649 50.3169C18.6733 52.2284 19.946 53.8464 21.6834 54.7907H13.9329C13.3229 54.7907 10.4521 55.9669 11.9009 55.9669H24.7303C24.9124 55.9489 25.0925 55.9111 25.2666 55.8534C25.7303 55.8942 26.196 55.9012 26.6607 55.8773C26.3234 56.4037 26.0199 56.9589 25.6756 57.4535C23.6128 60.5024 21.5501 63.5502 19.4873 66.5981C19.3948 66.7354 19.3649 66.9056 19.4037 67.0658L19.3032 67.4121H13.5418C12.9487 67.4121 11.7965 67.626 11.487 68.223C11.1765 68.8191 11.7557 69.0032 12.293 69.0032H18.8435L16.2912 77.8443C16.2812 77.8672 16.2742 77.8921 16.2693 77.9169L16.1837 78.2145H13.5716C12.8094 78.1906 12.0681 78.4652 11.5059 78.9797C11.1258 79.5419 11.8373 79.5827 12.2631 79.5827H15.7886L15.5747 80.3419C15.0424 82.1887 13.105 86.2018 13.8383 88.5372H13.4731C12.085 88.5372 10.2661 90.6408 12.3607 90.6408H78.6428C80.0299 90.6408 81.8498 88.5372 79.7542 88.5372H20.8555C22.5511 87.3352 24.1163 85.8068 25.2736 84.9172L27.2279 83.4206C27.3712 83.338 27.5025 83.2365 27.6189 83.1191L32.2689 79.5399H78.196C78.8627 79.5399 81.7026 78.2572 80.201 78.2572H33.9237L35.066 77.3786C35.661 77.2851 36.1974 76.9647 36.5626 76.484L42.4225 67.8529C43.7778 69.7992 45.9062 71.0649 48.2625 71.3276C50.6198 71.5893 52.9741 70.8221 54.7234 69.2211C55.019 68.9405 55.2896 68.635 55.5334 68.3086C56.9225 70.244 59.1614 71.3893 61.5446 71.3824C61.5894 71.3824 61.6361 71.3635 61.6809 71.3595C61.7665 71.3714 61.8531 71.3784 61.9396 71.3804C65.9577 71.3565 69.3757 68.4469 70.0434 64.4856C70.1618 63.3373 70.2017 62.182 70.1628 61.0277C74.6605 63.6666 79.813 64.9821 85.0251 64.8209C88.2859 64.8199 91.5418 64.5741 94.7658 64.0876V91.4558C94.7658 100.008 96.8126 111.481 94.7658 119.841C92.5746 128.791 76.8934 125.276 69.8295 125.276H30.7016C24.1382 125.276 7.03906 128.462 4.029 120.358C2.10654 115.188 3.77426 106.788 3.77426 101.438Z" fill="#262626"/>
<path d="M119.232 35.7212V31.4454C119.232 30.8802 116.137 31.338 116.137 32.2743V36.5511C116.137 37.1153 119.232 36.6576 119.232 35.7212Z" fill="#262626"/>
<path d="M119.251 53.1169V48.8411C119.251 47.243 116.117 47.7227 116.117 49.0889V53.3647C116.117 54.9617 119.251 54.4831 119.251 53.1169Z" fill="#262626"/>
</svg>
