<svg width="128" height="128" viewBox="0 0 128 128" fill="none" xmlns="http://www.w3.org/2000/svg">
<g clip-path="url(#clip0_47_74)">
<path d="M121.455 91.1394C121.061 91.1394 120.7 90.9223 120.515 90.5744C120.331 90.2265 120.354 89.8053 120.576 89.4795L121.982 87.4064L117.568 89.9571C117.104 90.2285 116.51 90.1109 116.185 89.6826C115.86 89.2533 115.907 88.6501 116.293 88.2761L118.618 86.015L113.832 88.7778C113.356 89.0522 112.75 88.9195 112.432 88.4711C112.115 88.0227 112.192 87.4064 112.609 87.0495L116.065 84.0906L110.029 87.5723C109.544 87.8448 108.929 87.697 108.623 87.2315C108.315 86.767 108.418 86.1446 108.86 85.8038L110.73 84.3993L106.927 86.593C106.448 86.8675 105.838 86.7288 105.524 86.2733C105.21 85.8179 105.299 85.1976 105.727 84.8477L114.397 77.813L101.938 85.0055C101.447 85.286 100.824 85.1352 100.516 84.6617C100.209 84.1871 100.326 83.5558 100.784 83.224L108.08 77.9467L98.0056 83.7619C97.518 84.0454 96.8937 83.8986 96.583 83.4271C96.2723 82.9566 96.3849 82.3252 96.8384 81.9894L110.228 72.0139L89.2145 84.155C88.7228 84.4385 88.0945 84.2857 87.7888 83.8081C87.4822 83.3296 87.6059 82.6962 88.0683 82.3674L106.177 69.5376L79.5878 84.8899C79.0932 85.1775 78.4598 85.0216 78.1552 84.537C77.8505 84.0524 77.9842 83.414 78.4568 83.0923L101.688 67.2232L69.7772 85.643C69.2786 85.9124 68.6562 85.7445 68.3616 85.2599C68.0681 84.7753 68.2058 84.1449 68.6763 83.8272L82.0661 75.3256L63.3236 86.1467C62.8239 86.4392 62.1805 86.2774 61.8789 85.7827C61.5773 85.287 61.7281 84.6416 62.2187 84.3309L87.065 68.3753L55.2091 86.765C54.7054 87.0666 54.0529 86.9027 53.7513 86.399C53.4497 85.8953 53.6125 85.2428 54.1162 84.9412L69.3389 75.4805L48.9576 87.2476C48.4589 87.5261 47.8285 87.3602 47.5309 86.8715C47.2343 86.3829 47.3771 85.7465 47.8547 85.4318L84.0025 62.3943L39.723 87.9574C39.2224 88.2328 38.593 88.0629 38.2984 87.5733C38.0048 87.0827 38.1516 86.4473 38.6302 86.1356L70.106 66.5536L31.9775 88.5656C31.4768 88.8331 30.8535 88.6591 30.5629 88.1705C30.2724 87.6819 30.4181 87.0515 30.8937 86.7398L54.6561 72.1888L27.7207 87.7402C27.218 88.0187 26.5866 87.8468 26.293 87.3541C25.9994 86.8605 26.1502 86.2241 26.6338 85.9144L56.4337 67.6354L23.7856 86.4925C23.2809 86.7921 22.6294 86.6242 22.3298 86.1185C22.0312 85.6138 22.1991 84.9613 22.7038 84.6627L32.1052 78.9863L20.7654 85.5303C20.2637 85.8078 19.6313 85.6369 19.3387 85.1433C19.0451 84.6506 19.196 84.0132 19.6795 83.7046L49.9167 65.2576L16.9187 84.3078C16.417 84.5722 15.7967 84.3963 15.5082 83.9087C15.2196 83.42 15.3654 82.7917 15.8389 82.48L35.2661 70.733L13.5688 83.2562C13.0661 83.5286 12.4377 83.3557 12.1471 82.863C11.8556 82.3714 12.0054 81.737 12.487 81.4284L37.2337 66.437L10.0388 82.1382C9.53514 82.4398 8.88264 82.2759 8.58002 81.7722C8.2784 81.2685 8.44228 80.616 8.94598 80.3144L63.3447 46.496L4.86107 80.2611C4.36139 80.5285 3.73905 80.3556 3.44849 79.869C3.15693 79.3834 3.29869 78.754 3.77022 78.4393L54.637 46.9595L2.86537 76.8407C2.35965 77.1404 1.70715 76.9735 1.40855 76.4678C1.10895 75.963 1.27584 75.3105 1.78155 75.0109L26.9083 59.7692L2.84827 73.6547C2.34558 73.9281 1.71721 73.7552 1.42564 73.2626C1.13408 72.7709 1.28489 72.1365 1.76647 71.8269L21.07 60.1372L2.84827 70.6475C2.34558 70.925 1.71419 70.7541 1.42062 70.2605C1.12704 69.7678 1.27785 69.1304 1.76245 68.8217L34.0034 49.0547L2.84827 67.0382C2.34859 67.3096 1.72425 67.1387 1.43168 66.6521C1.1381 66.1655 1.27986 65.5341 1.7534 65.2194L47.2152 36.7377L2.84827 62.3601C2.34759 62.6205 1.73128 62.4445 1.44374 61.9589C1.1562 61.4743 1.29796 60.849 1.76647 60.5343L16.4321 51.6074L2.84425 59.4505C2.34357 59.7139 1.72425 59.54 1.4357 59.0544C1.14615 58.5687 1.28791 57.9414 1.75742 57.6267L24.8975 43.3974L2.84626 56.1246C2.34357 56.4072 1.70816 56.2383 1.41257 55.7436C1.11699 55.2489 1.2688 54.6085 1.75541 54.3009L31.4225 35.8429L2.84626 52.3383C2.34759 52.6058 1.72726 52.4349 1.4357 51.9503C1.14313 51.4667 1.28087 50.8383 1.74938 50.5216L28.5531 33.6501L2.84626 48.4917C2.34658 48.7762 1.71218 48.6124 1.41358 48.1217C1.11397 47.6321 1.25774 46.9927 1.73832 46.679L25.0483 31.6343L2.84626 44.451C2.35262 44.7255 1.73128 44.5667 1.42967 44.0891C1.12905 43.6105 1.25473 42.9812 1.7152 42.6554L21.5114 29.1289L2.84626 39.9026C2.35463 40.1912 1.72324 40.0404 1.41459 39.5618C1.10593 39.0822 1.2306 38.4458 1.6961 38.1171L19.4463 25.4451L2.84626 35.0295C2.35161 35.307 1.72626 35.1481 1.42464 34.6676C1.12302 34.187 1.25171 33.5556 1.71721 33.2309L9.96243 27.6178L2.84626 31.7258C2.35563 32.0063 1.73128 31.8535 1.42564 31.3779C1.12001 30.9024 1.23965 30.271 1.69811 29.9402L11.4072 23.0181L2.84626 27.9616C2.35563 28.2391 1.73531 28.0853 1.42967 27.6127C1.12503 27.1392 1.24166 26.5108 1.6961 26.179L7.97477 21.688L2.84626 24.6418C2.3677 24.9092 1.76446 24.7695 1.45279 24.3191C1.14112 23.8676 1.22356 23.2544 1.64281 22.9015L10.4802 15.6747L2.84626 20.0803C2.36166 20.3548 1.74737 20.208 1.43872 19.7445C1.12905 19.281 1.2306 18.6587 1.67096 18.3169L4.37848 16.2397L2.84626 17.1245C2.36569 17.3959 1.75742 17.2552 1.44575 16.7997C1.13408 16.3443 1.22256 15.727 1.64985 15.3771L3.36706 13.9937L2.84626 14.2953C2.38479 14.5517 1.80468 14.43 1.48496 14.0108C1.16424 13.5905 1.20144 12.9994 1.57042 12.6223L4.27392 9.93391L2.84626 10.7583C2.41797 11.0036 1.87707 10.9232 1.54026 10.5623C1.20345 10.2023 1.15922 9.65743 1.43268 9.24723L3.05036 6.83027C2.56073 6.85439 2.11836 6.53971 1.97962 6.07019C1.84087 5.59966 2.04094 5.09496 2.46522 4.84964L5.80513 2.9213C6.23242 2.67598 6.77333 2.75742 7.11013 3.11735C7.44694 3.47728 7.49218 4.0222 7.21771 4.43341L5.74079 6.63321L10.3123 3.99506C10.7738 3.73868 11.3539 3.86034 11.6746 4.27958C11.9943 4.69984 11.9571 5.29101 11.5881 5.66803L8.88264 8.35645L14.2685 5.24878C14.7491 4.9723 15.3614 5.11205 15.6751 5.5685C15.9888 6.02595 15.8983 6.64728 15.467 6.99615L13.7497 8.37756L17.4335 6.25216C17.9171 5.98473 18.5244 6.13353 18.831 6.59299C19.1376 7.05246 19.0411 7.67077 18.6088 8.01462L15.9023 10.0887L20.7443 7.29777C21.2228 7.02531 21.8301 7.16405 22.1438 7.61648C22.4574 8.06991 22.373 8.68722 21.9497 9.03911L13.1103 16.2659L25.8627 8.90942C26.3513 8.64098 26.9646 8.79581 27.2672 9.26432C27.5689 9.73283 27.4583 10.3552 27.0129 10.69L20.7171 15.1901L29.5505 10.0887C30.0411 9.80924 30.6655 9.96206 30.9711 10.4376C31.2767 10.9122 31.1561 11.5435 30.6976 11.8743L20.9936 18.7944L33.7611 11.4239C34.2547 11.1454 34.8801 11.3043 35.1817 11.7848C35.4833 12.2654 35.3546 12.8978 34.8891 13.2215L26.6449 18.8346L37.4549 12.5952C37.9465 12.3066 38.5779 12.4564 38.8866 12.936C39.1952 13.4146 39.0705 14.052 38.605 14.3798L20.8468 27.0588L44.6877 13.2939C45.1823 13.0064 45.8167 13.1632 46.1214 13.6478C46.426 14.1314 46.2923 14.7709 45.8187 15.0926L26.0346 28.6081L61.1278 8.34841C61.6285 8.04176 62.283 8.19961 62.5897 8.70029C62.8963 9.20098 62.7385 9.85448 62.2378 10.1611L38.9217 25.2098L75.7322 3.95484C76.2319 3.68037 76.8592 3.84827 77.1538 4.33589C77.4484 4.8235 77.3066 5.4569 76.8311 5.77159L50.0183 22.6481L86.1681 1.78018C86.6708 1.47555 87.3254 1.63641 87.63 2.1381C87.9346 2.6408 87.7738 3.29531 87.2711 3.59994L57.5999 22.0599L90.4029 3.12137C90.9025 2.85796 91.5219 3.03189 91.8104 3.5175C92.1 4.00411 91.9582 4.63147 91.4887 4.94515L68.3928 19.1453L94.1117 4.29668C94.6114 4.03628 95.2287 4.21222 95.5163 4.69783C95.8038 5.18343 95.6621 5.80879 95.1935 6.12247L80.5279 15.0493L97.3783 5.32117C97.881 5.01855 98.5345 5.18042 98.8371 5.68412C99.1397 6.18681 98.9778 6.84032 98.4751 7.14294L53.0003 35.6307L102.611 6.98811C103.115 6.6875 103.768 6.85238 104.068 7.35608C104.369 7.86079 104.204 8.51329 103.699 8.8139L71.4412 28.591L106.645 8.27602C107.148 8.00255 107.776 8.17548 108.068 8.66812C108.359 9.16076 108.208 9.79517 107.727 10.1038L88.4665 21.7764L110.014 9.33872C110.518 9.05118 111.158 9.22109 111.455 9.71976C111.75 10.2184 111.591 10.8619 111.098 11.1665L85.952 26.4274L113.582 10.4718C114.085 10.1883 114.72 10.3572 115.017 10.8518C115.312 11.3465 115.16 11.9869 114.673 12.2956L63.7831 43.7905L118.697 12.0865C119.197 11.811 119.827 11.9809 120.12 12.4715C120.415 12.9611 120.268 13.5966 119.789 13.9082L65.3987 47.7226L123.617 14.1143C124.119 13.8499 124.739 14.0259 125.028 14.5145C125.316 15.0021 125.17 15.6305 124.697 15.9421L99.9993 30.9014L124.809 16.5775C125.312 16.3051 125.94 16.478 126.232 16.9706C126.523 17.4623 126.373 18.0967 125.891 18.4053L106.477 30.1493L124.935 19.4922C125.439 19.2046 126.079 19.3745 126.375 19.8732C126.67 20.3719 126.513 21.0153 126.019 21.32L95.7737 39.7689L124.935 22.9417C125.44 22.6431 126.092 22.81 126.391 23.3157C126.689 23.8214 126.522 24.4729 126.017 24.7715L116.545 30.4892L124.935 25.6412C125.435 25.3777 126.054 25.5517 126.344 26.0373C126.632 26.5229 126.491 27.1502 126.021 27.4649L96.2492 45.7218L124.943 29.161C125.445 28.8926 126.068 29.0665 126.358 29.5551C126.648 30.0438 126.502 30.6741 126.027 30.9868L102.262 45.5328L124.935 32.4446C125.435 32.1772 126.056 32.3501 126.348 32.8357C126.638 33.3223 126.496 33.9517 126.025 34.2664L94.4978 53.8756L124.928 36.3084C125.429 36.0228 126.066 36.1877 126.365 36.6804C126.663 37.174 126.515 37.8144 126.029 38.1261L89.8961 61.1576L124.933 40.9291C125.435 40.6466 126.071 40.8155 126.367 41.3102C126.662 41.8048 126.51 42.4443 126.023 42.7529L110.798 52.2157L124.933 44.0559C125.431 43.7814 126.056 43.9483 126.353 44.4339C126.648 44.9195 126.51 45.5519 126.038 45.8686L101.198 61.8252L124.937 48.1197C125.435 47.8573 126.051 48.0272 126.343 48.5088C126.634 48.9904 126.499 49.6157 126.036 49.9344L112.63 58.437L124.937 51.3339C125.431 51.0595 126.052 51.2183 126.353 51.6959C126.653 52.1735 126.529 52.8028 126.068 53.1296L102.845 68.9987L124.937 56.2453C125.429 55.9618 126.056 56.1146 126.363 56.5921C126.668 57.0707 126.546 57.7051 126.082 58.0329L107.971 70.8627L124.937 61.0702C125.425 60.7866 126.049 60.9334 126.359 61.404C126.669 61.8755 126.557 62.5069 126.103 62.8427L112.714 72.8172L124.943 65.7593C125.433 65.4778 126.057 65.6286 126.364 66.1032C126.671 66.5767 126.554 67.2081 126.097 67.5399L118.792 72.8222L124.943 69.2722C125.423 68.9977 126.034 69.1364 126.348 69.5919C126.661 70.0473 126.573 70.6676 126.145 71.0175L117.476 78.0522L124.937 73.7401C125.424 73.4596 126.044 73.6054 126.355 74.0739C126.663 74.5424 126.555 75.1708 126.106 75.5086L124.229 76.9182L124.937 76.51C125.413 76.2345 126.019 76.3682 126.336 76.8166C126.653 77.265 126.577 77.8803 126.159 78.2372L122.707 81.1941L124.937 79.9082C125.402 79.6367 125.995 79.7554 126.319 80.1837C126.645 80.612 126.599 81.2152 126.212 81.5892L123.882 83.8574L124.945 83.2491C125.374 83.0008 125.918 83.0822 126.256 83.4452C126.594 83.8081 126.636 84.3571 126.357 84.7673L124.777 87.0897H124.796C125.276 87.0917 125.695 87.4145 125.82 87.8779C125.943 88.3404 125.742 88.83 125.328 89.0713L121.995 90.9967C121.831 91.0922 121.645 91.1414 121.455 91.1394Z" fill="#E4E7EA"/>
<path d="M44.4414 87.7685C43.9718 87.7695 43.5576 87.4618 43.4219 87.0124C43.2862 86.563 43.4611 86.0784 43.8522 85.819L55.7038 77.9699L43.2319 85.1605C42.7372 85.448 42.1038 85.2912 41.7992 84.8066C41.4945 84.323 41.6283 83.6836 42.1008 83.3619L61.3561 70.2103L43.2319 80.6714C42.7392 80.9389 42.1229 80.778 41.8253 80.3035C41.5267 79.8279 41.6484 79.2036 42.1038 78.8758L60.9177 66.0591L43.2319 76.2608C42.7372 76.5433 42.1068 76.3844 41.8052 75.9018C41.5026 75.4183 41.6353 74.7828 42.1058 74.4611L59.6258 62.6216L43.2319 72.0904C42.7382 72.3729 42.1088 72.2161 41.8052 71.7355C41.5026 71.2539 41.6313 70.6195 42.0988 70.2948L62.5374 56.2132L43.2319 67.364C42.7342 67.6466 42.1018 67.4847 41.8022 66.9971C41.5016 66.5095 41.6413 65.872 42.1179 65.5553L53.5402 58.0541L43.2319 64.006C42.7362 64.2835 42.1098 64.1227 41.8102 63.6401C41.5096 63.1585 41.6423 62.5251 42.1098 62.2034L58.5118 51.1873L43.2319 60.0076C42.7372 60.2851 42.1119 60.1262 41.8112 59.6467C41.5096 59.1661 41.6383 58.5337 42.1038 58.2099L60.7649 45.5078L43.2319 55.6291C42.7352 55.8986 42.1139 55.7317 41.8183 55.2491C41.5237 54.7675 41.6574 54.1381 42.1249 53.8184L49.3638 49.1313L43.2319 52.6722C42.7312 52.9588 42.0948 52.7939 41.7962 52.3003C41.4966 51.8076 41.6454 51.1662 42.131 50.8555L43.0388 50.2774C42.5371 50.4433 41.9902 50.2161 41.7539 49.7445C41.5167 49.272 41.6635 48.6979 42.0968 48.3963L62.9014 34.0242L43.2319 45.3781C42.7332 45.6677 42.0938 45.5068 41.7921 45.0152C41.4905 44.5235 41.6363 43.8811 42.1199 43.5674L51.4962 37.4587L43.2319 42.2282C42.7342 42.4947 42.1159 42.3258 41.8223 41.8432C41.5287 41.3616 41.6635 40.7342 42.1289 40.4155L46.3074 37.7351L43.2319 39.5076C42.7352 39.7771 42.1139 39.6102 41.8183 39.1276C41.5237 38.645 41.6574 38.0166 42.1249 37.6969L49.1385 33.1606L43.2319 36.5618C42.7402 36.8303 42.1249 36.6704 41.8243 36.1979C41.5247 35.7244 41.6444 35.1 42.0968 34.7702L63.0411 20.2936L43.2319 31.7259C42.7382 32.0135 42.1058 31.8586 41.8002 31.377C41.4935 30.8944 41.6242 30.256 42.0948 29.9323L61.2797 16.638L43.2319 27.0518C42.7493 27.3253 42.139 27.1815 41.8283 26.7221C41.5187 26.2626 41.6132 25.6423 42.0455 25.2964L53.3451 16.4289L43.2319 22.2742C42.7513 22.5437 42.144 22.4009 41.8334 21.9444C41.5237 21.488 41.6142 20.8707 42.0415 20.5228L43.6863 19.2158L43.2319 19.4772C42.8418 19.7014 42.3521 19.6562 42.0103 19.3636C41.6685 19.071 41.5488 18.5945 41.7097 18.1742L42.3883 16.4208C42.131 16.3404 41.9158 16.1634 41.7871 15.9272C41.4945 15.4205 41.6675 14.772 42.1732 14.4784L43.7466 13.5705C44.1367 13.3473 44.6243 13.3936 44.9652 13.6862C45.306 13.9787 45.4266 14.4543 45.2658 14.8735L44.7852 16.1212L55.1427 10.1421C55.6243 9.8727 56.2316 10.0155 56.5412 10.4719C56.8509 10.9284 56.7614 11.5457 56.3331 11.8935L54.6823 13.2046L65.252 7.10888C65.7346 6.83642 66.3448 6.98019 66.6555 7.43965C66.9652 7.89811 66.8706 8.51844 66.4373 8.86429L55.1427 17.7278L82.5427 1.89994C83.0353 1.61642 83.6637 1.77125 83.9683 2.25082C84.273 2.73039 84.1473 3.3648 83.6818 3.69155L64.4929 16.9899L84.5555 5.40876C85.0481 5.13027 85.6735 5.28711 85.9761 5.76567C86.2787 6.24424 86.1531 6.87663 85.6906 7.20238L64.7543 21.681L84.5575 10.2487C85.0562 9.96419 85.6906 10.1281 85.9902 10.6177C86.2888 11.1083 86.145 11.7468 85.6644 12.0614L78.6357 16.6139L84.5595 13.1945C85.0582 12.915 85.6896 13.0809 85.9862 13.5695C86.2828 14.0592 86.14 14.6946 85.6624 15.0093L81.4689 17.7007L84.5615 15.9272C85.0582 15.6537 85.6825 15.8186 85.9801 16.3022C86.2767 16.7858 86.142 17.4172 85.6735 17.7369L76.3083 23.8386L84.5635 19.073C85.0572 18.7946 85.6815 18.9524 85.9842 19.431C86.2868 19.9085 86.1611 20.5409 85.6986 20.8677L64.8951 35.2398L84.5676 23.8828C85.0662 23.6134 85.6886 23.7813 85.9832 24.2669C86.2767 24.7515 86.139 25.3809 85.6685 25.6986L84.7636 26.2747C85.2713 26.1048 85.8253 26.34 86.0575 26.8216C86.2898 27.3042 86.1269 27.8833 85.6775 28.1749L78.4236 32.87L84.5706 29.32C85.0652 29.0325 85.6986 29.1893 86.0033 29.6739C86.3079 30.1585 86.1742 30.7969 85.7006 31.1187L67.0375 43.8117L84.5746 33.6854C85.0703 33.3979 85.7057 33.5567 86.0093 34.0433C86.3129 34.5289 86.1752 35.1694 85.6986 35.4881L69.3027 46.4981L84.5766 37.6819C85.0733 37.4044 85.7006 37.5662 85.9992 38.0508C86.2988 38.5344 86.1631 39.1688 85.6926 39.4885L74.2784 46.9827L84.5786 41.0318C85.0733 40.7382 85.7117 40.8921 86.0183 41.3777C86.326 41.8643 86.1903 42.5067 85.7137 42.8274L65.262 56.917L84.5826 45.7602C85.0793 45.4666 85.7187 45.6224 86.0254 46.1101C86.331 46.5987 86.1923 47.2421 85.7117 47.5608L68.1958 59.3973L84.5846 49.9346C85.0803 49.648 85.7137 49.8039 86.0183 50.2885C86.323 50.7731 86.1893 51.4115 85.7157 51.7332L66.8988 64.55L84.5897 54.3472C85.0833 54.0647 85.7117 54.2216 86.0153 54.7031C86.319 55.1847 86.1893 55.8191 85.7217 56.1439L66.4715 69.2934L84.5917 58.8323C85.0904 58.5226 85.7459 58.6765 86.0545 59.1751C86.3642 59.6748 86.2104 60.3293 85.7117 60.639L73.8531 68.4901L84.5957 62.2908C85.0863 62.0063 85.7137 62.1571 86.0214 62.6327C86.329 63.1092 86.2084 63.7436 85.7479 64.0734L71.405 74.3777L84.5977 66.7628C85.0843 66.4813 85.7057 66.6281 86.0153 67.0976C86.326 67.5661 86.2164 68.1955 85.767 68.5333L76.453 75.4896L84.6017 70.7854C85.0692 70.5351 85.6504 70.6678 85.963 71.0961C86.2757 71.5244 86.2244 72.1175 85.8434 72.4865L79.0188 78.6285L84.6038 75.4062C85.0662 75.1468 85.6494 75.2674 85.9701 75.6887C86.2918 76.111 86.2526 76.7052 85.8796 77.0812L83.8769 79.0578L84.6017 78.6335C84.9798 78.4143 85.4523 78.4485 85.7951 78.72C86.137 78.9914 86.2787 79.4438 86.1511 79.8611L85.5347 81.889C85.9158 82.0398 86.1752 82.3957 86.2033 82.8039C86.2315 83.2121 86.0234 83.6011 85.6665 83.8022L84.4379 84.512C84.0608 84.7312 83.5873 84.696 83.2455 84.4256C82.9036 84.1541 82.7619 83.7017 82.8886 83.2834L83.3309 81.8276L77.7771 85.0368C77.3147 85.2972 76.7315 85.1766 76.4108 84.7543C76.0891 84.3331 76.1283 83.7389 76.5023 83.3619L78.506 81.3812L71.2793 85.5456C70.8118 85.7959 70.2317 85.6632 69.919 85.2349C69.6063 84.8066 69.6566 84.2134 70.0386 83.8444L76.8632 77.7085L62.0186 86.2805C61.532 86.561 60.9107 86.4142 60.601 85.9457C60.2914 85.4762 60.3999 84.8478 60.8504 84.51L70.1593 77.5467L53.9312 86.9179C53.4406 87.2025 52.8133 87.0516 52.5056 86.5751C52.198 86.0995 52.3186 85.4651 52.7791 85.1344L67.128 74.8281L44.9752 87.6157C44.8144 87.7132 44.6294 87.7665 44.4414 87.7685Z" fill="#CAD0D6"/>
<path d="M30.3578 88.7949C29.9205 88.7949 29.5274 88.5275 29.3675 88.1203C29.2076 87.7131 29.3142 87.2497 29.6349 86.9521L34.9997 81.9683L25.9643 87.1833C25.4837 87.4407 24.8865 87.2929 24.5818 86.8405C24.2772 86.389 24.3637 85.7788 24.7829 85.4299L29.642 81.6617L22.1598 85.9788C21.6793 86.2513 21.07 86.1105 20.7573 85.6541C20.4457 85.1976 20.5361 84.5773 20.9654 84.2295L30.955 76.2356L16.9509 84.3189C16.4563 84.5964 15.8309 84.4376 15.5293 83.957C15.2277 83.4774 15.3564 82.845 15.8219 82.5203L18.4168 80.7538L13.8985 83.3598C13.4069 83.6483 12.7755 83.4975 12.4669 83.019C12.1582 82.5394 12.2829 81.903 12.7484 81.5742L24.0731 73.4979L9.42857 81.9442C8.93693 82.2327 8.30554 82.0819 7.99689 81.6034C7.68823 81.1248 7.8129 80.4874 8.2784 80.1586L24.1606 68.8067L4.59062 80.1164C4.09597 80.41 3.45855 80.2561 3.1509 79.7705C2.84325 79.2839 2.97897 78.6415 3.45553 78.3208L19.7962 67.0815L2.86738 76.8579C2.37071 77.1364 1.74335 76.9735 1.44475 76.4889C1.14514 76.0053 1.28087 75.3709 1.75139 75.0512L12.5121 67.9421L2.84827 73.509C2.35563 73.7915 1.72726 73.6366 1.42263 73.1571C1.11699 72.6775 1.24367 72.0431 1.70916 71.7163L19.0823 59.5722L2.84827 68.9435C2.35965 69.2189 1.74134 69.0671 1.4357 68.5976C1.12905 68.1281 1.24065 67.5017 1.69006 67.1659L17.0927 55.9015L2.84827 64.1327C2.36066 64.4061 1.74536 64.2553 1.43871 63.7878C1.13307 63.3203 1.24166 62.695 1.68805 62.3581L12.3402 54.5201L2.84827 59.9995C2.36066 60.2669 1.75039 60.1141 1.44676 59.6486C1.14313 59.1831 1.24869 58.5628 1.69006 58.224L7.46202 54.0134L2.84827 56.6727C2.37172 56.9411 1.76848 56.8044 1.4548 56.356C1.14112 55.9065 1.22054 55.2933 1.63678 54.9384L8.65039 49.085L2.84827 52.4279C2.37876 52.7134 1.76949 52.5938 1.44173 52.1534C1.11498 51.712 1.17832 51.0937 1.58751 50.7278L6.17612 46.4156L2.84827 48.3279C2.40691 48.5652 1.86098 48.4626 1.53624 48.0816C1.2115 47.7005 1.19641 47.1446 1.50105 46.7464L3.9532 43.7986L2.84425 44.436C2.48834 44.6381 2.04899 44.619 1.71319 44.3868C1.37738 44.1535 1.20446 43.7493 1.2688 43.3462L1.79563 40.1179C1.63275 40.0274 1.49703 39.8937 1.40252 39.7328C1.10895 39.2251 1.28187 38.5756 1.7896 38.281L2.56978 37.8306C2.92569 37.6245 3.36806 37.6416 3.70688 37.8758C4.04469 38.1091 4.21762 38.5173 4.15126 38.9235L3.72598 41.4842L8.07028 38.9757C8.51668 38.7194 9.08271 38.8189 9.41349 39.212C9.74527 39.6061 9.74728 40.1812 9.41751 40.5763L6.96536 43.5101L13.0419 40.0022C13.5115 39.7177 14.1207 39.8364 14.4475 40.2777C14.7752 40.7191 14.7119 41.3374 14.3027 41.7034L9.71108 46.0215L18.2469 41.0931C18.7254 40.8136 19.3377 40.9473 19.6554 41.4018C19.9721 41.8552 19.8877 42.4765 19.4604 42.8294L12.4548 48.6788L23.6589 42.2111C24.1475 41.9256 24.7759 42.0744 25.0845 42.5489C25.3942 43.0245 25.2756 43.6579 24.8171 43.9896L19.0441 48.2002L27.8926 43.0999C28.3792 42.8324 28.9905 42.9842 29.2941 43.4497C29.5977 43.9152 29.4922 44.5366 29.0508 44.8744L18.3896 52.6983L33.1468 44.1957C33.6344 43.9203 34.2527 44.0721 34.5593 44.5416C34.865 45.0111 34.7544 45.6375 34.305 45.9733L18.9064 57.2377L39.2676 45.4826C39.7612 45.1991 40.3886 45.3539 40.6932 45.8335C40.9989 46.3131 40.8722 46.9475 40.4067 47.2742L23.0275 59.4234L42.0455 48.4455C42.5422 48.167 43.1695 48.3299 43.4691 48.8145C43.7677 49.2981 43.633 49.9315 43.1615 50.2512L32.4068 57.3553L42.0505 51.7905C42.5432 51.519 43.1615 51.6789 43.4611 52.1544C43.7617 52.629 43.6401 53.2563 43.1826 53.5841L26.847 64.8133L42.0566 56.0332C42.5452 55.7447 43.1756 55.8965 43.4782 56.3771C43.7868 56.8536 43.6672 57.488 43.2067 57.8188L27.3185 69.1727L42.0626 60.6711C42.5542 60.3826 43.1856 60.5324 43.4943 61.0119C43.8029 61.4905 43.6783 62.1279 43.2128 62.4557L31.8991 70.533L42.0696 64.6605C42.5643 64.373 43.1977 64.5288 43.5023 65.0134C43.8069 65.498 43.6732 66.1364 43.1997 66.4581L40.5877 68.2136L42.0757 67.364C42.5572 67.0855 43.1715 67.2253 43.4852 67.6837C43.7989 68.1422 43.7064 68.7655 43.2721 69.1134L33.2825 77.1073L42.0928 72.021C42.5763 71.7385 43.1967 71.8812 43.5094 72.3457C43.822 72.8102 43.7205 73.4386 43.2761 73.7804L38.418 77.5486L42.0968 75.4232C42.5653 75.1518 43.1645 75.2754 43.4862 75.7118C43.808 76.1481 43.7496 76.7564 43.3505 77.1243L37.9887 82.1061L42.1038 79.7323C42.5482 79.477 43.1112 79.5765 43.443 79.9676C43.7738 80.3597 43.7778 80.9318 43.453 81.3279L41.8032 83.3236L42.1098 83.1477C42.4386 82.9546 42.8458 82.9526 43.1766 83.1426C43.5073 83.3326 43.7104 83.6855 43.7094 84.0666C43.7094 84.4476 43.5043 84.7995 43.1725 84.9885L37.7485 88.1123C37.3031 88.3646 36.7421 88.2641 36.4123 87.874C36.0825 87.4829 36.0775 86.9128 36.4002 86.5167L38.0481 84.525L30.8997 88.6502C30.7358 88.7467 30.5488 88.797 30.3578 88.7949Z" fill="#53CDAE"/>
<path d="M119.252 90.7988C118.834 90.7998 118.456 90.5564 118.283 90.1774C118.11 89.7984 118.175 89.354 118.448 89.0393L120.516 86.6565L115.78 89.3902C115.318 89.6496 114.735 89.5289 114.414 89.1077C114.093 88.6854 114.132 88.0912 114.505 87.7152L118.89 83.3669L111.05 87.8942C110.572 88.1757 109.959 88.044 109.639 87.5905C109.32 87.1381 109.403 86.5158 109.829 86.1619L115.728 81.1792L106.547 86.4756C106.065 86.749 105.455 86.6053 105.144 86.1458C104.834 85.6863 104.929 85.066 105.361 84.7201L113.013 78.7119L102.031 85.0499C101.544 85.3304 100.922 85.1836 100.613 84.7151C100.303 84.2456 100.413 83.6162 100.862 83.2794L110.588 75.9933L97.4245 83.5921C96.9369 83.8615 96.3236 83.7087 96.02 83.2412C95.7163 82.7737 95.8249 82.1514 96.2683 81.8146L108.581 72.8495L88.9249 84.1973C88.4353 84.4748 87.814 84.321 87.5093 83.8485C87.2037 83.3749 87.3203 82.7466 87.7758 82.4138L104.828 70.2144L85.7408 81.2324C85.2512 81.514 84.6279 81.3621 84.3202 80.8886C84.0136 80.4151 84.1302 79.7837 84.5867 79.4509L101.395 67.3218L85.7408 76.3563C85.2452 76.6438 84.6098 76.486 84.3062 75.9994C84.0035 75.5128 84.1403 74.8733 84.6168 74.5546L90.3767 70.6728L85.7408 73.3492C85.2512 73.6307 84.6279 73.4789 84.3202 73.0053C84.0136 72.5318 84.1302 71.9004 84.5867 71.5676L95.3846 63.7678L85.7408 69.3346C85.2502 69.6182 84.6228 69.4673 84.3152 68.9918C84.0075 68.5152 84.1282 67.8808 84.5897 67.5511L91.8969 62.3049L85.7328 65.857C85.2492 66.1244 84.6409 65.9766 84.3343 65.5162C84.0277 65.0567 84.1252 64.4384 84.5575 64.0945L92.8128 57.7656L85.7408 61.8525C85.2552 62.127 84.6389 61.9782 84.3313 61.5117C84.0236 61.0452 84.1302 60.4208 84.5746 60.082L88.6364 57.0487L85.7408 58.7177C85.2723 58.9891 84.6751 58.8645 84.3534 58.4281C84.0307 57.9908 84.09 57.3795 84.4911 57.0125L91.6284 50.4795L85.7408 53.8797C85.2633 54.1542 84.655 54.0185 84.3403 53.5671C84.0246 53.1146 84.1071 52.4973 84.5293 52.1434L86.6829 50.3538L85.7408 50.8957C85.2934 51.1551 84.7244 51.0536 84.3926 50.6565C84.0618 50.2593 84.0649 49.6802 84.3997 49.2871L88.1347 44.8935L85.7408 46.275C85.3186 46.5132 84.7867 46.4348 84.4509 46.0839C84.1151 45.7331 84.0598 45.1992 84.3172 44.787L86.1179 42.001L85.7408 42.2132C85.394 42.4132 84.9627 42.4012 84.6279 42.181C84.2901 41.9608 84.1061 41.5677 84.1533 41.1676L84.5404 37.89C84.4399 37.8085 84.3554 37.709 84.2921 37.5964C83.9975 37.0887 84.1714 36.4392 84.6781 36.1446L85.21 35.839C85.5579 35.6379 85.9902 35.65 86.326 35.8712C86.6618 36.0913 86.8448 36.4834 86.7975 36.8826L86.513 39.3076L88.8696 37.9473C89.2929 37.709 89.8237 37.7874 90.1595 38.1383C90.4953 38.4892 90.5506 39.0231 90.2943 39.4353L88.4916 42.2222L92.3895 39.9752C92.8379 39.7158 93.407 39.8173 93.7377 40.2145C94.0695 40.6116 94.0665 41.1907 93.7307 41.5838L89.9987 45.9733L96.3879 42.2836C96.8655 42.0091 97.4738 42.1448 97.7885 42.5962C98.1042 43.0487 98.0217 43.666 97.5994 44.0199L95.4439 45.8135L98.9718 43.7776C99.4403 43.5131 100.032 43.6398 100.351 44.0731C100.67 44.5065 100.615 45.1097 100.222 45.4777L93.0872 52.0117L103.163 46.1945C103.65 45.9251 104.261 46.0759 104.566 46.5404C104.871 47.0039 104.768 47.6252 104.329 47.965L100.28 50.9983L105.874 47.769C106.357 47.4965 106.97 47.6433 107.278 48.1048C107.587 48.5662 107.487 49.1886 107.051 49.5314L98.7918 55.8674L109.34 49.7777C109.831 49.4932 110.458 49.644 110.766 50.1206C111.074 50.5971 110.953 51.2305 110.493 51.5613L103.176 56.8155L112.352 51.5211C112.84 51.2486 113.456 51.4025 113.76 51.871C114.065 52.3395 113.953 52.9648 113.506 53.2996L102.713 61.0985L115.827 53.5268C116.323 53.2393 116.958 53.3972 117.262 53.8838C117.566 54.3704 117.428 55.0098 116.951 55.3295L111.191 59.2103L118.429 55.0359C118.919 54.7554 119.542 54.9062 119.85 55.3798C120.156 55.8543 120.04 56.4847 119.582 56.8175L102.787 68.9435L122.659 57.466C123.148 57.1885 123.77 57.3423 124.074 57.8148C124.379 58.2884 124.262 58.9168 123.808 59.2485L106.756 71.447L124.943 60.9497C125.433 60.6712 126.053 60.822 126.36 61.2935C126.666 61.765 126.553 62.3944 126.099 62.7282L113.793 71.6893L124.943 65.2487C125.43 64.9682 126.052 65.115 126.362 65.5835C126.671 66.053 126.562 66.6824 126.112 67.0192L116.375 74.3143L124.945 69.3678C125.428 69.0953 126.039 69.2391 126.349 69.6986C126.659 70.1581 126.565 70.7784 126.131 71.1242L118.479 77.1325L124.954 73.3964C125.431 73.1189 126.04 73.2526 126.358 73.7041C126.674 74.1545 126.594 74.7738 126.172 75.1277L120.257 80.1165L124.933 77.415C125.395 77.1556 125.978 77.2762 126.299 77.6975C126.62 78.1198 126.582 78.7139 126.208 79.09L121.823 83.4383L124.93 81.6447C125.38 81.3833 125.954 81.4858 126.284 81.887C126.615 82.2881 126.607 82.8702 126.265 83.2623L124.201 85.6431L124.88 85.254C125.209 85.0449 125.627 85.0328 125.968 85.2228C126.308 85.4129 126.518 85.7748 126.513 86.1649C126.506 86.555 126.288 86.9119 125.942 87.0929L119.778 90.6479C119.619 90.7435 119.438 90.7957 119.252 90.7988Z" fill="#53CDAE"/>
<path d="M49.5869 87.3544C49.1235 87.3544 48.7133 87.0538 48.5735 86.6124C48.4328 86.17 48.5956 85.6884 48.9747 85.422L64.5331 74.5336L43.2319 86.8285C42.7392 87.107 42.1139 86.9502 41.8112 86.4716C41.5086 85.9931 41.6343 85.3617 42.0968 85.0349L62.7144 70.8076L43.2238 82.059C42.7272 82.3375 42.0998 82.1746 41.8002 81.69C41.5016 81.2064 41.6373 80.572 42.1078 80.2523L55.2362 71.5727L43.2319 78.5079C42.7342 78.7965 42.0978 78.6366 41.7952 78.148C41.4925 77.6584 41.6343 77.0179 42.1139 76.7012L55.6826 67.717L43.2319 74.9006C42.7372 75.171 42.1179 75.0081 41.8203 74.5286C41.5227 74.05 41.6504 73.4226 42.1119 73.0989L57.5295 62.7967L43.2319 71.0499C42.7332 71.3334 42.0988 71.1696 41.7992 70.6799C41.4996 70.1903 41.6443 69.5509 42.1249 69.2362L48.9897 64.8004L43.2319 68.1232C42.7372 68.3967 42.1149 68.2358 41.8153 67.7563C41.5167 67.2767 41.6443 66.6463 42.1078 66.3226L59.3935 54.654L43.2409 63.984C42.7442 64.2625 42.1169 64.0996 41.8173 63.615C41.5187 63.1315 41.6534 62.4971 42.1249 62.1773L54.9175 53.731L43.2319 60.4712C42.7372 60.7487 42.1119 60.5898 41.8112 60.1092C41.5096 59.6297 41.6383 58.9973 42.1038 58.6725L60.3487 46.2901L43.2319 56.1691C42.7352 56.4466 42.1078 56.2837 41.8092 55.8001C41.5096 55.3155 41.6454 54.6821 42.1159 54.3624L54.8371 45.9644L43.2319 52.6663C42.7463 52.9428 42.13 52.796 41.8213 52.3305C41.5116 51.866 41.6162 51.2407 42.0586 50.8998L51.2277 43.9134L43.2319 48.5301C42.7272 48.7946 42.1038 48.6136 41.8193 48.1199C41.5338 47.6273 41.6886 46.9969 42.1692 46.6913L64.6035 33.7388C65.0881 33.4643 65.7024 33.6111 66.011 34.0746C66.3197 34.5381 66.2192 35.1614 65.7788 35.5033L56.6096 42.4958L84.5555 26.3633C85.0501 26.0968 85.6675 26.2627 85.963 26.7403C86.2586 27.2188 86.1309 27.8442 85.6715 28.1679L72.9291 36.579L84.5595 29.866C85.0552 29.5725 85.6956 29.7283 86.0013 30.2159C86.3079 30.7045 86.1692 31.348 85.6886 31.6667L67.4407 44.0431L84.5635 34.1601C85.0592 33.8936 85.6755 34.0585 85.9711 34.5371C86.2677 35.0147 86.139 35.641 85.6795 35.9647L72.91 44.394L84.5656 37.6669C85.0602 37.3934 85.6825 37.5543 85.9821 38.0338C86.2818 38.5134 86.1531 39.1428 85.6906 39.4675L68.4039 51.1361L84.5706 41.8031C85.0693 41.5195 85.7037 41.6824 86.0033 42.173C86.3019 42.6627 86.1581 43.3021 85.6775 43.6158L78.8077 48.0566L84.5726 44.7277C85.0693 44.4322 85.7117 44.589 86.0173 45.0806C86.323 45.5713 86.1792 46.2167 85.6946 46.5324L70.2679 56.8347L84.5706 48.5794C85.0662 48.2969 85.6976 48.4567 85.9982 48.9424C86.2999 49.428 86.1631 50.0644 85.6906 50.3841L72.1128 59.3763L84.5726 52.1837C85.0693 51.8952 85.7067 52.055 86.0093 52.5437C86.3119 53.0333 86.1702 53.6737 85.6906 53.9904L72.5762 62.6599L84.5766 55.7318C85.0703 55.4442 85.7026 55.598 86.0083 56.0806C86.3139 56.5632 86.1842 57.2016 85.7137 57.5254L65.0841 71.7547L84.5806 60.4903C85.0723 60.2108 85.6966 60.3666 86.0013 60.8432C86.3049 61.3197 86.1822 61.9511 85.7218 62.2799L70.1653 73.1683L84.5847 64.8456C85.0723 64.5682 85.6906 64.717 85.9982 65.1855C86.3059 65.654 86.1973 66.2803 85.7499 66.6182L73.9637 75.345L84.5917 69.2131C85.0693 68.9386 85.6775 69.0743 85.9922 69.5268C86.3079 69.9782 86.2255 70.5965 85.8032 70.9494L77.6897 77.6724L84.5957 73.6851C85.0512 73.4206 85.6323 73.5302 85.96 73.9424C86.2878 74.3546 86.2647 74.9448 85.9047 75.3299L81.8158 79.7234L84.6017 78.1148C84.9747 77.8997 85.4402 77.9298 85.7811 78.1922C86.1219 78.4536 86.2717 78.896 86.1601 79.3112L85.4694 81.8619C85.8655 81.9936 86.148 82.3455 86.1913 82.7617C86.2335 83.178 86.0284 83.5801 85.6665 83.7892L84.4379 84.4991C84.0659 84.7132 83.6014 84.682 83.2616 84.4206C82.9207 84.1582 82.7709 83.7179 82.8825 83.3026L83.4375 81.2366L76.7356 85.1053C76.2801 85.3657 75.703 85.2561 75.3763 84.8459C75.0485 84.4357 75.0706 83.8476 75.4265 83.4625L79.5175 79.0669L67.8469 85.8041C67.3693 86.0745 66.7651 85.9368 66.4514 85.4863C66.1387 85.0369 66.2192 84.4216 66.6374 84.0677L74.7549 77.3537L58.8778 86.5209C58.3902 86.7974 57.7718 86.6486 57.4642 86.1801C57.1565 85.7126 57.2651 85.0852 57.7125 84.7484L69.5028 76.0186L50.1188 87.2096C49.9569 87.3031 49.7739 87.3524 49.5869 87.3544Z" fill="#42B99D"/>
<path d="M62.459 126.471C61.9885 126.471 61.5742 126.161 61.4395 125.711C61.3058 125.259 61.4848 124.774 61.8789 124.517L62.8481 123.88L59.2005 125.986C58.6988 126.292 58.0453 126.133 57.7397 125.632C57.433 125.131 57.5919 124.477 58.0936 124.171L58.9582 123.617L56.0637 125.287C55.563 125.595 54.9085 125.439 54.5998 124.94C54.2922 124.439 54.447 123.785 54.9477 123.476L66.7118 115.724L52.1567 124.134C51.6621 124.417 51.0317 124.258 50.7301 123.775C50.4275 123.292 50.5602 122.656 51.0307 122.335L72.8738 107.535L47.738 122.035C47.2404 122.295 46.6261 122.123 46.3365 121.641C46.046 121.159 46.1807 120.536 46.6432 120.217L49.1707 118.628L45.6488 120.66C45.1451 120.962 44.4926 120.801 44.189 120.298C43.8864 119.794 44.0492 119.141 44.5519 118.838L48.6218 116.287L43.5717 119.195C43.073 119.458 42.4557 119.286 42.1651 118.803C41.8746 118.319 42.0123 117.693 42.4798 117.376L43.9035 116.485L41.7781 117.708C41.2804 117.981 40.654 117.815 40.3585 117.33C40.0629 116.844 40.2016 116.212 40.6731 115.894L57.2772 105.246L39.5511 115.478C39.0514 115.768 38.413 115.607 38.1104 115.115C37.8088 114.623 37.9546 113.981 38.4392 113.667L59.9958 99.6873L37.3232 112.778C36.8205 113.082 36.167 112.921 35.8633 112.42C35.5587 111.917 35.7196 111.263 36.2223 110.959L49.5317 102.53L35.7166 110.504C35.2189 110.783 34.5895 110.618 34.2919 110.131C33.9933 109.646 34.1331 109.01 34.6066 108.694L56.877 94.2592L34.0647 107.437C33.568 107.719 32.9377 107.56 32.636 107.074C32.3354 106.588 32.4712 105.952 32.9447 105.633L60.3054 87.4919L32.3937 103.596C31.8951 103.881 31.2607 103.717 30.9611 103.227C30.6625 102.737 30.8062 102.098 31.2868 101.784L48.5564 90.7031L31.5522 100.521C31.0566 100.794 30.4332 100.631 30.1356 100.151C29.837 99.6692 29.9687 99.0388 30.4342 98.7161L54.8522 82.5242L30.8344 96.3956C30.3377 96.6691 29.7134 96.5042 29.4158 96.0206C29.1192 95.538 29.2539 94.9066 29.7224 94.5869L48.6982 82.1633L30.5006 92.6696C30.0019 92.9532 29.3675 92.7903 29.0679 92.2997C28.7683 91.81 28.9121 91.1706 29.3926 90.8569L41.5971 82.9706L30.7831 89.2151C30.2844 89.5147 29.638 89.3569 29.3323 88.8622C29.0277 88.3666 29.1765 87.7191 29.6671 87.4064L43.5616 78.2523L31.3381 85.3092C30.8414 85.5967 30.207 85.4389 29.9034 84.9523C29.5998 84.4656 29.7375 83.8262 30.213 83.5065L42.8086 75.0703L32.5154 81.0222C32.0238 81.2936 31.4054 81.1368 31.1038 80.6632C30.8022 80.1887 30.9218 79.5623 31.3763 79.2326L43.0831 71.0708L34.9404 75.772C34.4638 76.0495 33.8546 75.9158 33.5369 75.4644C33.2202 75.0129 33.3006 74.3946 33.7229 74.0397L42.5542 66.5666C42.2245 66.7567 41.8193 66.7567 41.4905 66.5666C41.1618 66.3756 40.9587 66.0247 40.9587 65.6447C40.9587 65.2647 41.1618 64.9138 41.4915 64.7238L51.7506 58.8C52.2271 58.5235 52.8374 58.6572 53.1541 59.1076C53.4708 59.5591 53.3903 60.1774 52.9691 60.5323L44.1417 68.0013L63.6061 56.7621C64.0998 56.4795 64.7271 56.6344 65.0328 57.1129C65.3374 57.5925 65.2107 58.2269 64.7463 58.5537L53.0556 66.7024L69.3811 57.2788C69.8758 57.0114 70.4921 57.1743 70.7887 57.6508C71.0863 58.1274 70.9606 58.7527 70.5041 59.0785L57.9066 67.5188L73.6349 58.435C74.1316 58.1565 74.759 58.3194 75.0576 58.804C75.3562 59.2876 75.2214 59.922 74.7509 60.2417L60.8504 69.4019L77.3418 59.8798C77.8425 59.5731 78.496 59.731 78.8026 60.2317C79.1093 60.7324 78.9514 61.3869 78.4508 61.6925L66.2292 69.5788L80.4696 61.3567C80.9672 61.0832 81.5916 61.2481 81.8882 61.7317C82.1848 62.2153 82.0501 62.8467 81.5815 63.1664L62.6158 75.583L83.5219 63.5123C84.0206 63.2026 84.6761 63.3564 84.9858 63.8561C85.2945 64.3548 85.1416 65.0093 84.642 65.319L60.2361 81.5048L86.7251 66.2117C87.2238 65.9272 87.8582 66.0911 88.1578 66.5817C88.4574 67.0714 88.3136 67.7108 87.8331 68.0245L70.5333 79.126L88.9893 68.4709C89.4859 68.1823 90.1234 68.3422 90.426 68.8308C90.7286 69.3204 90.5868 69.9608 90.1073 70.2775L62.7526 88.4058L91.4656 71.8269C91.9662 71.5212 92.6197 71.6781 92.9264 72.1787C93.233 72.6794 93.0752 73.3339 92.5745 73.6406L70.3121 88.072L93.2672 74.8139C93.7699 74.5092 94.4234 74.6701 94.7281 75.1728C95.0317 75.6755 94.8708 76.329 94.3681 76.6326L81.0547 85.0669L94.4616 77.3253C94.9623 77.0197 95.6168 77.1765 95.9235 77.6772C96.2301 78.1779 96.0723 78.8324 95.5716 79.1391L74.021 93.1311L95.6731 80.6291C96.1718 80.3546 96.7971 80.5215 97.0927 81.0071C97.3893 81.4917 97.2506 82.1241 96.7791 82.4418L80.183 93.0819L96.5086 83.6593C97.0073 83.3969 97.6256 83.5688 97.9162 84.0524C98.2057 84.536 98.068 85.1624 97.6015 85.4791L96.1839 86.3628L96.8806 85.9637C97.3813 85.6832 98.0137 85.8511 98.3103 86.3417C98.6069 86.8333 98.4591 87.4718 97.9775 87.7834L93.9006 90.3331L97.1078 88.4842C97.6065 88.2178 98.2268 88.3887 98.5194 88.8723C98.811 89.3569 98.6732 89.9842 98.2047 90.3019L95.654 91.9025L97.2697 90.9715C97.7653 90.689 98.3947 90.8479 98.6963 91.3305C98.999 91.8141 98.8662 92.4495 98.3967 92.7712L76.5546 107.595L96.8364 95.8879C97.333 95.6094 97.9604 95.7723 98.259 96.2569C98.5586 96.7405 98.4229 97.3749 97.9523 97.6946L86.1923 105.441L95.9154 99.828C96.4151 99.5445 97.0495 99.7074 97.3481 100.198C97.6477 100.688 97.5039 101.327 97.0234 101.641L95.3232 102.74C95.7656 102.641 96.2231 102.835 96.4603 103.222C96.761 103.712 96.6182 104.352 96.1366 104.668L93.7991 106.202C94.2786 106.145 94.7371 106.417 94.9151 106.868C95.092 107.317 94.9432 107.83 94.5531 108.115L85.2693 115.066L88.934 112.95C89.2627 112.741 89.681 112.729 90.0218 112.919C90.3626 113.11 90.5718 113.471 90.5667 113.862C90.5607 114.252 90.3425 114.608 89.9967 114.789L70.8801 125.814C70.3935 126.095 69.7712 125.948 69.4615 125.479C69.1519 125.01 69.2615 124.381 69.7109 124.044L79.0057 117.083L62.9898 126.328C62.829 126.423 62.646 126.471 62.459 126.471Z" fill="#FCD167"/>
<path d="M124.937 60.4752C124.629 60.4752 124.337 60.3415 124.135 60.1092C123.933 59.877 123.842 59.5683 123.884 59.2637L124.108 57.6842L122.499 58.6112C122.076 58.8565 121.54 58.7811 121.2 58.4282C120.86 58.0743 120.808 57.5324 121.072 57.1192L122.223 55.3236L119.517 56.8829C119.063 57.1473 118.483 57.0398 118.155 56.6296C117.826 56.2204 117.845 55.6312 118.201 55.2441L120.025 53.2555L116.624 55.213C116.164 55.4744 115.582 55.3588 115.257 54.9395C114.933 54.5213 114.968 53.9281 115.337 53.548L119.247 49.5637L113.051 53.1378C112.574 53.4113 111.968 53.2756 111.652 52.8252C111.337 52.3748 111.418 51.7584 111.838 51.4035L115.289 48.5261L110.188 51.4739C109.706 51.7454 109.097 51.6016 108.787 51.1442C108.478 50.6867 108.57 50.0674 109.001 49.7205L113.181 46.4258L107.319 49.812C106.828 50.1006 106.197 49.9497 105.888 49.4712C105.579 48.9916 105.703 48.3542 106.169 48.0264L106.954 47.4654L105.111 48.5281C104.629 48.8026 104.018 48.6608 103.705 48.2034C103.394 47.7449 103.486 47.1236 103.918 46.7767L121.247 33.0099C121.18 32.5766 121.386 32.1453 121.766 31.9261L124.935 30.0963C125.417 29.8198 126.03 29.9615 126.343 30.421C126.654 30.8815 126.56 31.5038 126.125 31.8497L116.493 39.5017L124.935 34.6316C125.426 34.343 126.058 34.4939 126.366 34.9724C126.674 35.452 126.551 36.0894 126.084 36.4172L125.124 37.1018C125.615 36.9329 126.156 37.1441 126.403 37.6005C126.65 38.057 126.532 38.625 126.122 38.9447L121.938 42.2384L124.935 40.5111C125.412 40.2417 126.015 40.3794 126.328 40.8278C126.641 41.2762 126.563 41.8905 126.147 42.2454L122.701 45.1208L124.935 43.8309C125.396 43.5655 125.982 43.6811 126.306 44.1014C126.631 44.5226 126.596 45.1188 126.223 45.4969L122.314 49.4802L124.935 47.9691C125.388 47.7077 125.965 47.8163 126.292 48.2245C126.621 48.6327 126.603 49.2188 126.25 49.6059L124.422 51.6016L124.935 51.306C125.358 51.0657 125.89 51.1431 126.228 51.494C126.565 51.8459 126.619 52.3808 126.361 52.794L125.175 54.6489C125.476 54.5625 125.801 54.6148 126.059 54.7917C126.396 55.0189 126.575 55.4181 126.519 55.8202L126.168 58.3096C126.253 58.386 126.326 58.4765 126.38 58.577C126.673 59.0857 126.499 59.7352 125.991 60.0288L125.462 60.3354C125.302 60.4259 125.121 60.4742 124.937 60.4752Z" fill="#6CA3E9"/>
<path d="M127.097 59.6335C127.141 59.5129 127.141 59.3802 127.097 59.2595C127.249 46.2286 128.331 32.6066 127.066 19.7255C126.091 9.76408 108.709 8.48823 100.745 5.96973C96.219 4.25754 91.4947 3.12547 86.6849 2.60066V1.91196C86.6849 1.50679 83.907 1.86974 83.6536 2.63082C80.733 2.89926 77.8495 3.48842 75.0565 4.38623L54.068 10.6991C49.224 12.1549 45.2085 14.0993 40.3092 13.0708C33.1186 11.5617 25.9431 8.5184 18.9396 6.2995C15.1945 5.11313 9.5281 2.0487 5.34969 3.09431C-2.07212 4.95127 0.713823 18.7965 0.713823 24.115C0.713823 40.5472 -0.892794 57.846 0.713823 74.2017C1.70916 84.338 20.0556 85.8572 28.5391 88.442C28.4094 89.6264 28.345 90.8168 28.345 92.0082C28.3641 137.64 97.5522 135.543 99.4373 91.1837C99.3337 88.8814 99.0201 86.5931 98.4983 84.3481L112.739 88.8563C115.972 89.8788 120.189 92.0233 123.606 90.4357C130.697 87.1451 127.076 67.8375 127.076 62.0606C127.068 61.2552 127.088 60.4409 127.097 59.6335ZM124.443 57.5081L106.473 47.1084L124.267 32.5443C124.127 34.4726 123.991 36.3296 123.991 38.0005C123.991 44.4089 124.254 50.951 124.443 57.5102V57.5081ZM100.237 8.03782C106.201 9.92695 113.66 11.0791 119.168 14.036C124.399 16.8461 124.786 23.0865 124.47 29.2606L104.237 45.8184L86.6849 35.6519V23.5792C86.7171 23.5028 86.7171 23.4163 86.6849 23.3389V3.5598C91.1227 4.1379 96.0813 6.71774 100.237 8.03782ZM61.2344 57.106C55.1397 57.6982 49.2863 59.7884 44.195 63.1896V47.1928L83.6074 25.5135V36.3537C83.5179 36.5156 83.5179 36.7116 83.6074 36.8745V62.6477C77.012 58.2753 69.1076 56.3178 61.2344 57.106ZM54.4561 12.1549C62.9325 9.60422 74.3658 3.78501 83.6074 3.4281V23.3349L44.195 45.0141V14.7207C47.6857 14.1767 51.1202 13.3181 54.4561 12.1549ZM3.79133 8.30827C5.63622 2.53732 10.5787 5.87623 14.6677 7.17318L35.2852 13.7022C37.1693 14.3185 39.1268 14.6875 41.1065 14.8011C41.1065 14.8222 41.0894 14.8393 41.0894 14.8604V45.0463L26.0557 42.1809C25.8798 41.814 25.1951 41.7567 24.5135 41.8884L3.79133 37.9342V21.501C3.79133 17.7791 2.64015 11.9166 3.79133 8.30827ZM3.79133 74.8793C2.89653 71.5424 3.79133 66.5899 3.79133 63.1896V39.5669C10.1595 40.7824 16.5286 41.9959 22.8978 43.2054C19.5207 56.1569 16.1446 69.1063 12.7675 82.0528C8.30654 80.3486 4.65496 78.0905 3.79133 74.8793ZM15.3775 82.9707C15.5001 82.8601 15.5896 82.7173 15.6369 82.5585L25.7561 43.7524L41.0793 46.67V46.9958C41.0642 47.049 41.0642 47.1054 41.0793 47.1596V65.1702C41.0874 65.2627 41.1115 65.3532 41.1507 65.4377C34.6508 70.712 30.2804 78.1609 28.8467 86.4081C25.18 85.4922 20.0666 84.4717 15.3775 82.9707ZM53.8719 123.07C40.4419 118.205 31.4768 105.472 31.4225 91.1878C31.4818 81.4365 35.8362 72.206 43.3254 65.9585C43.632 65.8459 43.8944 65.6367 44.0734 65.3633C52.4302 58.5407 63.7338 56.556 73.9154 60.1242C87.6943 64.9621 95.7606 77.8321 96.3638 92.0062C95.4459 113.448 76.0318 130.651 53.8719 123.07ZM123.991 82.474C123.354 88.9518 121.364 89.371 115.196 87.4175L97.9393 81.9553C97.9051 81.9492 97.8699 81.9452 97.8347 81.9442C95.842 75.2724 91.93 69.3346 86.5854 64.8706C86.6407 64.8073 86.6759 64.7289 86.6849 64.6454V38.7958L124.342 60.5967C124.401 60.6208 124.464 60.6399 124.527 60.654C124.781 67.925 124.602 75.2051 123.991 82.4549V82.474Z" fill="#262626"/>
<path d="M71.2029 109.856C70.4257 109.699 69.6194 109.914 69.0242 110.438L65.4299 114.032V99.6833C65.4299 99.0247 62.3524 99.5093 62.3524 100.509V113.555L58.9522 110.153C58.2946 109.497 55.4112 110.621 56.0737 111.284L62.4499 117.661C62.4761 117.683 62.5042 117.702 62.5354 117.716C62.652 117.835 62.7988 117.919 62.9607 117.96C63.7378 118.117 64.5442 117.902 65.1394 117.378L71.5156 111.002C71.9831 110.534 71.8302 110.039 71.2029 109.856Z" fill="#262626"/>
<path d="M56.4819 80.3546C54.6632 75.7127 49.8544 76.0927 45.7614 76.0927C45.2145 76.0927 43.2238 76.325 43.2238 77.1283V89.8807C43.2238 90.0616 43.6953 90.0938 43.7637 90.0938H48.0145C48.0396 90.0938 48.0909 90.0808 48.1251 90.0767C48.2035 90.0767 48.2437 90.0888 48.3372 90.0767C53.2637 89.8173 58.6335 85.84 56.4819 80.3546ZM49.7337 88.8461H47.8868C47.4344 88.819 46.981 88.819 46.5285 88.8461C46.4401 88.8562 46.3496 88.8562 46.2611 88.8461C46.2973 88.5385 46.3104 88.2288 46.3013 87.9192V77.2922C47.9492 77.1524 49.602 77.5013 51.0538 78.2925C52.7027 79.3804 53.7342 81.1891 53.8317 83.1626C53.9524 85.5535 52.4905 88.6561 49.7337 88.8461Z" fill="#262626"/>
<path d="M63.7529 90.5906H68.0037C69.7601 90.5906 70.3724 88.3466 68.2802 88.3466H65.452V76.5966C65.452 74.994 62.3313 75.4554 62.3313 76.8348V89.5872C62.3313 90.3845 63.0773 90.5906 63.7529 90.5906Z" fill="#262626"/>
<path d="M83.7089 78.9201C84.4982 79.5455 87.3223 78.344 86.5834 77.7599C81.8369 73.9937 73.09 76.6077 72.9804 83.3096C72.8648 90.5867 81.7072 91.7278 86.3572 88.036C87.6863 86.9733 84.6249 87.0949 83.9221 87.6539C80.5319 90.3444 76.4611 86.922 76.0891 83.375C75.6306 78.9352 79.9789 75.9572 83.7089 78.9201Z" fill="#262626"/>
</g>
<defs>
<clipPath id="clip0_47_74">
<rect width="128" height="128" fill="white"/>
</clipPath>
</defs>
</svg>
