<svg width="52" height="42" viewBox="0 0 52 42" fill="none" xmlns="http://www.w3.org/2000/svg">
<path fill-rule="evenodd" clip-rule="evenodd" d="M14.0998 1.75L15.8623 0H22.9121L24.6746 1.75V40.25L22.9121 42H15.8623L14.0998 40.25V1.75ZM17.6247 3.5V38.5H21.1497V3.5H17.6247ZM28.8023 4.7075L29.8563 2.464L36.4832 0.0699999L38.7392 1.1165L52 37.2925L50.946 39.536L44.3227 41.93L42.0667 40.8835L28.8023 4.7075ZM32.715 5.1555L44.7703 38.0415L48.0838 36.848L36.0285 3.9585L32.715 5.1555ZM0 1.75L1.76247 0H8.81236L10.5748 1.75V40.25L8.81236 42H1.76247L0 40.25V1.75ZM3.52495 3.5V38.5H7.04989V3.5H3.52495Z" fill="#254478"/>
</svg>
