<svg width="38" height="38" viewBox="0 0 38 38" fill="none" xmlns="http://www.w3.org/2000/svg">
<path d="M0.666504 19C0.666504 5.66663 5.6665 0.666626 18.9998 0.666626C32.3332 0.666626 37.3332 5.66663 37.3332 19C37.3332 32.3333 32.3332 37.3333 18.9998 37.3333C5.6665 37.3333 0.666504 32.3333 0.666504 19Z" fill="white"/>
<path d="M29.1999 8.79996H8.79993V29.2H29.1999V8.79996Z" fill="#F1F5F7"/>
<path opacity="0.05" d="M18.9999 21.1833L8.79987 29.2L8.2832 12.3333L18.9999 21.1833Z" fill="black"/>
<path opacity="0.15" d="M8.99988 13.5L23.0832 29.2H29.2499L29.7165 12.3333L18.5499 18.7666L8.99988 13.5Z" fill="url(#paint0_linear_9_36)"/>
<path d="M30.0499 8.79996H29.1999L18.9999 16.8833L8.7999 8.79996H7.9499C7.27495 8.80433 6.62888 9.07439 6.15161 9.55166C5.67433 10.0289 5.40427 10.675 5.3999 11.35V26.65C5.40427 27.3249 5.67433 27.971 6.15161 28.4483C6.62888 28.9255 7.27495 29.1956 7.9499 29.2H8.7999V13.3166L18.9999 21.1833L29.1999 13.3166V29.2H30.0499C30.7249 29.1956 31.3709 28.9255 31.8482 28.4483C32.3255 27.971 32.5955 27.3249 32.5999 26.65V11.35C32.5955 10.675 32.3255 10.0289 31.8482 9.55166C31.3709 9.07439 30.7249 8.80433 30.0499 8.79996Z" fill="#F84437"/>
<defs>
<linearGradient id="paint0_linear_9_36" x1="12.0665" y1="12.8166" x2="30.2332" y2="22.8666" gradientUnits="userSpaceOnUse">
<stop offset="0.01"/>
<stop offset="1" stop-color="#E6E6E6"/>
</linearGradient>
</defs>
</svg>
