<svg width="50" height="50" viewBox="0 0 50 50" fill="none" xmlns="http://www.w3.org/2000/svg">
<path d="M19.1392 35.1844H21.7079L38.2056 18.9537L35.6369 16.4265L20.4417 31.4115L13.4953 24.5775L10.9266 27.1046L19.1392 35.1844Z" fill="#254478"/>
<path fill-rule="evenodd" clip-rule="evenodd" d="M27.569 0.0533906C33.3576 0.409328 38.7845 3.25683 42.7642 7.17214C47.4675 12.1553 50 18.2062 50 25.3249C50 31.0199 47.8293 36.359 44.2113 40.9862C40.5934 45.2574 35.5284 48.4609 29.7397 49.5287C23.9511 50.5965 18.1624 49.8846 13.0973 47.0371C8.03226 44.1896 4.05256 39.9184 1.88182 34.5793C-0.28893 29.2403 -0.65072 23.1893 1.15823 17.8503C2.96719 12.1553 6.22331 7.52808 11.2884 4.32464C15.9917 1.1212 21.7803 -0.302547 27.569 0.0533906ZM29.3779 45.9693C34.0812 44.9015 38.4227 42.4099 41.6788 38.4946C44.5731 34.5793 46.3821 29.9521 46.0203 24.969C46.0203 19.274 43.8496 13.579 39.8699 9.6637C36.2519 6.10433 31.9105 3.9687 26.8454 3.61276C22.1421 3.25683 17.077 4.32464 13.0973 7.17214C9.11763 10.0196 6.22331 13.9349 4.77614 18.9181C3.32898 23.5453 3.32898 28.5284 5.49972 33.1556C7.67047 37.7828 10.9266 41.3421 15.2681 43.8337C19.6096 46.3253 24.6746 47.0371 29.3779 45.9693Z" fill="#254478"/>
</svg>
