<svg width="36" height="36" viewBox="0 0 36 36" fill="none" xmlns="http://www.w3.org/2000/svg">
<path d="M18 0C8.05867 0 0 8.05867 0 18C0 27.9413 8.05867 36 18 36C27.9413 36 36 27.9413 36 18C36 8.05867 27.9413 0 18 0ZM27.6738 24.8307C26.9056 25.3111 23.7841 25.4542 23.0284 24.9052C22.6139 24.6042 22.2348 24.2275 21.8749 23.8687C21.623 23.618 21.3372 23.4963 21.1208 23.2241C20.9441 23.0015 20.8228 22.7386 20.6368 22.5187C20.3229 22.1498 19.8398 21.8359 19.4576 22.2867C18.8821 22.9648 19.5481 24.2965 18.7807 24.803C18.5233 24.973 18.2636 25.0222 17.9419 24.998L17.2295 25.0304C16.811 25.0386 16.1481 25.0425 15.672 24.9567C15.1409 24.8607 14.7022 24.5706 14.2218 24.3577C13.3101 23.9533 12.4417 23.4023 11.7807 22.6392C9.98189 20.5608 7.56577 17.7025 6.62717 15.0894C6.43414 14.5525 5.92409 13.4891 6.40762 13.0286C7.06508 12.5509 10.2919 12.4163 10.7953 13.1549C10.9997 13.4552 11.1287 13.8942 11.2734 14.2347C11.4536 14.6589 11.551 15.0586 11.8326 15.4341C12.0818 15.7672 12.2654 16.1021 12.4581 16.4671C12.6745 16.8769 12.8788 17.27 13.142 17.6471C13.3206 17.9037 13.7929 18.4141 14.0912 18.4519C14.8196 18.5451 14.7743 16.7752 14.7201 16.3431C14.6683 15.9266 14.655 15.4848 14.6687 15.0625C14.6804 14.7022 14.7127 14.1945 14.4994 13.9005C14.1516 13.4208 13.3768 13.7796 13.3163 13.135C13.4442 12.9521 13.4173 12.7899 14.2717 12.5084C14.9448 12.2873 15.3795 12.2943 15.8233 12.3298C16.728 12.4023 17.6873 12.1574 18.5607 12.4506C19.3952 12.7318 19.2662 13.9176 19.2381 14.6281C19.2003 15.5979 19.2408 16.5447 19.2381 17.5293C19.2369 17.9774 19.219 18.4137 19.7657 18.3771C20.2781 18.3432 20.3303 17.9119 20.5748 17.5562C20.9149 17.0602 21.2272 16.5572 21.5735 16.0631C22.0403 15.3951 22.1814 14.6445 22.6209 13.9601C22.778 13.7156 22.9133 13.1947 23.1555 13.0013C23.3388 12.8542 23.687 12.9311 23.9089 12.9311H24.4365C24.8401 12.9311 25.2519 12.9279 25.6668 12.9424C26.2642 12.963 26.9333 12.8258 27.5257 12.9096C30.0818 13.2703 24.3129 18.7347 24.6131 19.7103C24.8206 20.3841 26.1367 21.1371 26.6116 21.6889C27.2422 22.424 29.1833 23.8851 27.6738 24.8307Z" fill="#4C75A3"/>
</svg>
